<svg width="35" height="35" viewBox="0 0 35 35" fill="none" xmlns="http://www.w3.org/2000/svg">
<circle cx="17.5" cy="17.5" r="17.5" fill="#F3BA2F"/>
<path d="M13.3029 15.6609L17.3056 11.6584L21.3104 15.663L23.6395 13.334L17.3056 6.99997L10.9739 13.3319L13.3029 15.6609Z" fill="white"/>
<path d="M11.6581 17.3051L9.3291 14.9761L6.99998 17.3053L9.32899 19.6343L11.6581 17.3051Z" fill="white"/>
<path d="M13.3029 18.9501L17.3056 22.9526L21.3103 18.9481L23.6406 21.2759L23.6395 21.2772L17.3056 27.611L10.9737 21.2793L10.9705 21.276L13.3029 18.9501Z" fill="white"/>
<path d="M25.2822 19.6354L27.6113 17.3062L25.2823 14.9772L22.9532 17.3063L25.2822 19.6354Z" fill="white"/>
<path d="M19.6681 17.3043H19.6691L17.3057 14.9409L15.5591 16.6875H15.559L15.3584 16.8882L14.9444 17.3022L14.9412 17.3054L14.9444 17.3088L17.3057 19.6701L19.6691 17.3067L19.6702 17.3054L19.6681 17.3043Z" fill="white"/>
</svg>
