<svg width="22" height="22" viewBox="0 0 22 22" fill="none" xmlns="http://www.w3.org/2000/svg">
<path d="M11 0C10.644 0 10.3555 0.288578 10.3555 0.644531V2.01953C10.3555 2.37548 10.644 2.66406 11 2.66406C11.356 2.66406 11.6445 2.37548 11.6445 2.01953V0.644531C11.6445 0.288578 11.356 0 11 0Z" fill="white"/>
<path d="M11 19.3359C10.644 19.3359 10.3555 19.6245 10.3555 19.9805V21.3555C10.3555 21.7114 10.644 22 11 22C11.356 22 11.6445 21.7114 11.6445 21.3555V19.9805C11.6445 19.6245 11.356 19.3359 11 19.3359Z" fill="white"/>
<path d="M5.13605 4.22446L4.16376 3.25217C3.91204 3.0005 3.50393 3.0005 3.25226 3.25217C3.00055 3.50388 3.00055 3.91199 3.25226 4.16366L4.22456 5.13596C4.35037 5.26182 4.51533 5.32476 4.68028 5.32476C4.84524 5.32476 5.0102 5.26182 5.13605 5.13596C5.38776 4.88425 5.38776 4.47613 5.13605 4.22446Z" fill="white"/>
<path d="M18.7479 17.8363L17.7756 16.864C17.5239 16.6123 17.1157 16.6123 16.8641 16.864C16.6124 17.1157 16.6124 17.5238 16.8641 17.7755L17.8364 18.7478C17.9622 18.8736 18.1271 18.9366 18.2921 18.9366C18.4571 18.9366 18.622 18.8736 18.7479 18.7478C18.9996 18.4961 18.9996 18.0879 18.7479 17.8363Z" fill="white"/>
<path d="M2.01953 10.3555H0.644531C0.288578 10.3555 0 10.644 0 11C0 11.356 0.288578 11.6445 0.644531 11.6445H2.01953C2.37548 11.6445 2.66406 11.356 2.66406 11C2.66406 10.644 2.37548 10.3555 2.01953 10.3555Z" fill="white"/>
<path d="M21.3555 10.3555H19.9805C19.6245 10.3555 19.3359 10.644 19.3359 11C19.3359 11.356 19.6245 11.6445 19.9805 11.6445H21.3555C21.7114 11.6445 22 11.356 22 11C22 10.644 21.7114 10.3555 21.3555 10.3555Z" fill="white"/>
<path d="M5.13605 16.864C4.88434 16.6123 4.47622 16.6123 4.22456 16.864L3.25226 17.8363C3.00055 18.088 3.00055 18.4961 3.25226 18.7478C3.37807 18.8736 3.54303 18.9366 3.70799 18.9366C3.87294 18.9366 4.0379 18.8736 4.16371 18.7478L5.13605 17.7755C5.38776 17.5238 5.38776 17.1157 5.13605 16.864Z" fill="white"/>
<path d="M18.7479 3.25223C18.4962 3.00056 18.088 3.00056 17.8364 3.25223L16.8641 4.22448C16.6124 4.47619 16.6124 4.88431 16.8641 5.13598C16.9899 5.26183 17.1548 5.32478 17.3198 5.32478C17.4848 5.32478 17.6497 5.26183 17.7756 5.13602L18.7479 4.16372C18.9996 3.91201 18.9996 3.5039 18.7479 3.25223Z" fill="white"/>
<path d="M11 4.16797C7.2328 4.16797 4.16797 7.2328 4.16797 11C4.16797 14.7672 7.2328 17.832 11 17.832C14.7672 17.832 17.832 14.7672 17.832 11C17.832 7.2328 14.7672 4.16797 11 4.16797ZM11.6445 16.5053V5.49471C14.3984 5.81509 16.543 8.16161 16.543 11C16.543 13.8384 14.3984 16.1849 11.6445 16.5053Z" fill="white"/>
</svg>
