<svg width="20" height="20" viewBox="0 0 20 20" fill="none" xmlns="http://www.w3.org/2000/svg">
<path d="M10 0C9.67641 0 9.41406 0.262344 9.41406 0.585938V1.83594C9.41406 2.15953 9.67641 2.42188 10 2.42188C10.3236 2.42188 10.5859 2.15953 10.5859 1.83594V0.585938C10.5859 0.262344 10.3236 0 10 0Z" fill="#7C86AF"/>
<path d="M10 17.5781C9.67641 17.5781 9.41406 17.8405 9.41406 18.1641V19.4141C9.41406 19.7377 9.67641 20 10 20C10.3236 20 10.5859 19.7377 10.5859 19.4141V18.1641C10.5859 17.8405 10.3236 17.5781 10 17.5781Z" fill="#7C86AF"/>
<path d="M4.66907 3.84043L3.78517 2.95652C3.55634 2.72773 3.18532 2.72773 2.95653 2.95652C2.72771 3.18535 2.72771 3.55636 2.95653 3.78515L3.84044 4.66906C3.95481 4.78347 4.10478 4.8407 4.25474 4.8407C4.4047 4.8407 4.55466 4.78347 4.66907 4.66906C4.8979 4.44023 4.8979 4.06921 4.66907 3.84043Z" fill="#7C86AF"/>
<path d="M17.0435 16.2148L16.1596 15.3309C15.9307 15.1021 15.5597 15.1021 15.3309 15.3309C15.1021 15.5597 15.1021 15.9307 15.3309 16.1595L16.2148 17.0434C16.3292 17.1578 16.4792 17.2151 16.6291 17.2151C16.7791 17.2151 16.929 17.1578 17.0435 17.0434C17.2723 16.8146 17.2723 16.4436 17.0435 16.2148Z" fill="#7C86AF"/>
<path d="M1.83594 9.41406H0.585938C0.262344 9.41406 0 9.67641 0 10C0 10.3236 0.262344 10.5859 0.585938 10.5859H1.83594C2.15953 10.5859 2.42188 10.3236 2.42188 10C2.42188 9.67641 2.15953 9.41406 1.83594 9.41406Z" fill="#7C86AF"/>
<path d="M19.4141 9.41406H18.1641C17.8405 9.41406 17.5781 9.67641 17.5781 10C17.5781 10.3236 17.8405 10.5859 18.1641 10.5859H19.4141C19.7377 10.5859 20 10.3236 20 10C20 9.67641 19.7377 9.41406 19.4141 9.41406Z" fill="#7C86AF"/>
<path d="M4.66907 15.3309C4.44024 15.1021 4.06923 15.1021 3.84044 15.3309L2.95653 16.2148C2.72771 16.4436 2.72771 16.8146 2.95653 17.0434C3.07091 17.1578 3.22087 17.2151 3.37083 17.2151C3.52079 17.2151 3.67075 17.1578 3.78513 17.0435L4.66907 16.1595C4.8979 15.9307 4.8979 15.5597 4.66907 15.3309Z" fill="#7C86AF"/>
<path d="M17.0435 2.95656C16.8146 2.72778 16.4436 2.72778 16.2148 2.95656L15.3309 3.84043C15.1021 4.06926 15.1021 4.44028 15.3309 4.66906C15.4453 4.78348 15.5953 4.84071 15.7452 4.84071C15.8952 4.84071 16.0451 4.78348 16.1596 4.6691L17.0435 3.7852C17.2723 3.55637 17.2723 3.18535 17.0435 2.95656Z" fill="#7C86AF"/>
<path d="M10 3.78906C6.57527 3.78906 3.78906 6.57527 3.78906 10C3.78906 13.4247 6.57527 16.2109 10 16.2109C13.4247 16.2109 16.2109 13.4247 16.2109 10C16.2109 6.57527 13.4247 3.78906 10 3.78906ZM10.5859 15.0048V4.9952C13.0894 5.28645 15.0391 7.41965 15.0391 10C15.0391 12.5804 13.0894 14.7136 10.5859 15.0048Z" fill="#7C86AF"/>
</svg>
