<svg width="30" height="28" viewBox="0 0 30 28" fill="none" xmlns="http://www.w3.org/2000/svg">
<path d="M0 28.0003H29.0665V8.52051H0V28.0003ZM21.55 11.3608H24.557V14.3678H21.55V11.3608ZM21.55 16.4729H24.557V19.48H21.55V16.4729ZM21.55 21.5851H24.557V24.5921H21.55V21.5851ZM15.8698 11.3608H18.8768V14.3678H15.8698V11.3608ZM15.8698 16.4729H18.8768V19.48H15.8698V16.4729ZM15.8698 21.5851H18.8768V24.5921H15.8698V21.5851ZM10.1896 11.3608H13.1966V14.3678H10.1896V11.3608ZM10.1896 16.4729H13.1966V19.48H10.1896V16.4729ZM10.1896 21.5851H13.1966V24.5921H10.1896V21.5851ZM4.50941 11.3608H7.51638V14.3678H4.50941V11.3608ZM4.50941 16.4729H7.51638V19.48H4.50941V16.4729ZM7.51638 21.5851V24.5921H4.50941V21.5851H7.51638Z" fill="#1ECD84"/>
<path d="M29.0665 1.7041H23.9542V5.11219H22.2503V1.7041H6.81617V5.11219H5.11221V1.7041H0V6.81626H29.0665V1.7041Z" fill="#1ECD84"/>
<path d="M6.81577 0H5.11182V1.70396H6.81577V0Z" fill="#1ECD84"/>
<path d="M23.9544 0H22.2505V1.70396H23.9544V0Z" fill="#1ECD84"/>
</svg>
