<svg width="22" height="22" viewBox="0 0 22 22" fill="none" xmlns="http://www.w3.org/2000/svg">
<path d="M15.8625 7.50963C16.1982 7.84532 16.1982 8.38948 15.8625 8.72501L10.0973 14.4904C9.76163 14.8259 9.21764 14.8259 8.88194 14.4904L6.13748 11.7457C5.80179 11.4102 5.80179 10.8661 6.13748 10.5305C6.47301 10.1948 7.01717 10.1948 7.35269 10.5305L9.48955 12.6674L14.6471 7.50963C14.9828 7.1741 15.527 7.1741 15.8625 7.50963ZM22 11C22 17.0802 17.0794 22 11 22C4.91975 22 0 17.0794 0 11C0 4.91975 4.92059 0 11 0C17.0802 0 22 4.92059 22 11ZM20.2812 11C20.2812 5.86977 16.1296 1.71875 11 1.71875C5.86977 1.71875 1.71875 5.87044 1.71875 11C1.71875 16.1302 5.87044 20.2812 11 20.2812C16.1302 20.2812 20.2812 16.1296 20.2812 11Z" fill="#1ECD84"/>
</svg>
