<svg width="18" height="20" viewBox="0 0 18 20" fill="none" xmlns="http://www.w3.org/2000/svg">
<path d="M11.1367 20H3.67578C1.95261 20 0.550781 18.5982 0.550781 16.875V6.28906C0.550781 4.56589 1.95261 3.16406 3.67578 3.16406H11.1367C12.8599 3.16406 14.2617 4.56589 14.2617 6.28906V16.875C14.2617 18.5982 12.8599 20 11.1367 20ZM3.67578 4.72656C2.81427 4.72656 2.11328 5.42755 2.11328 6.28906V16.875C2.11328 17.7365 2.81427 18.4375 3.67578 18.4375H11.1367C11.9982 18.4375 12.6992 17.7365 12.6992 16.875V6.28906C12.6992 5.42755 11.9982 4.72656 11.1367 4.72656H3.67578ZM17.3867 14.9219V3.125C17.3867 1.40182 15.9849 0 14.2617 0H5.58984C5.15833 0 4.80859 0.349731 4.80859 0.78125C4.80859 1.21277 5.15833 1.5625 5.58984 1.5625H14.2617C15.1232 1.5625 15.8242 2.26349 15.8242 3.125V14.9219C15.8242 15.3534 16.174 15.7031 16.6055 15.7031C17.037 15.7031 17.3867 15.3534 17.3867 14.9219Z" fill="black"/>
</svg>
