<svg width="19" height="17" viewBox="0 0 19 17" fill="none" xmlns="http://www.w3.org/2000/svg">
<path d="M18.7552 13.7504L10.9617 0.825499C10.6547 0.316321 10.0946 0 9.49998 0C8.90538 0 8.34529 0.316321 8.03821 0.825536L0.244753 13.7504C-0.0725696 14.2767 -0.0819583 14.936 0.220223 15.4712C0.522479 16.0063 1.09196 16.3387 1.70649 16.3387H17.2935C17.908 16.3387 18.4775 16.0063 18.7798 15.4711C19.082 14.936 19.0726 14.2766 18.7552 13.7504ZM17.7026 14.8629C17.6194 15.0102 17.4627 15.1017 17.2935 15.1017H1.70649C1.53731 15.1017 1.38052 15.0102 1.29736 14.8629C1.21416 14.7156 1.21676 14.534 1.30408 14.3892L9.09761 1.4643C9.18214 1.32414 9.33633 1.23704 9.50002 1.23704C9.66367 1.23704 9.81786 1.32414 9.9024 1.4643L17.6959 14.3892C17.7832 14.5341 17.7858 14.7156 17.7026 14.8629Z" fill="#FC5252"/>
<path d="M9.50575 5.08984C9.0352 5.08984 8.66797 5.34234 8.66797 5.78995C8.66797 7.15565 8.82862 9.11814 8.82862 10.4839C8.82865 10.8396 9.13855 10.9888 9.50579 10.9888C9.78121 10.9888 10.1714 10.8396 10.1714 10.4839C10.1714 9.11818 10.3321 7.15569 10.3321 5.78995C10.3321 5.34237 9.95336 5.08984 9.50575 5.08984Z" fill="#FC5252"/>
<path d="M9.51702 11.7803C9.01208 11.7803 8.6333 12.1819 8.6333 12.664C8.6333 13.1345 9.01204 13.5477 9.51702 13.5477C9.98757 13.5477 10.3893 13.1345 10.3893 12.664C10.3893 12.1819 9.98753 11.7803 9.51702 11.7803Z" fill="#FC5252"/>
</svg>
