<svg width="8" height="14" viewBox="0 0 8 14" fill="none" xmlns="http://www.w3.org/2000/svg">
<path d="M4.3588 13.8136C4.23458 13.9378 4.07171 14 3.90885 14C3.74598 14 3.58311 13.9378 3.45885 13.8136L0.277036 10.6318C0.0285149 10.3833 0.0285149 9.98035 0.277036 9.73182C0.525558 9.48335 0.928503 9.48335 1.17698 9.73182L3.27248 11.8273V0.636364C3.27248 0.284921 3.55741 0 3.90885 0C4.26029 0 4.54521 0.284921 4.54521 0.636364V11.8273L6.64071 9.73182C6.88924 9.48335 7.29214 9.48335 7.54066 9.73182C7.78918 9.9803 7.78918 10.3832 7.54066 10.6318L4.3588 13.8136Z" fill="white"/>
</svg>
