<svg width="117" height="117" viewBox="0 0 117 117" fill="none" xmlns="http://www.w3.org/2000/svg">
<path d="M58.5 117C90.8087 117 117 90.8087 117 58.5C117 26.1913 90.8087 0 58.5 0C26.1913 0 0 26.1913 0 58.5C0 90.8087 26.1913 117 58.5 117Z" fill="#627EEA"/>
<path d="M60.3271 14.625V47.0559L87.7381 59.3044L60.3271 14.625Z" fill="white" fill-opacity="0.602"/>
<path d="M60.3208 14.625L32.9062 59.3044L60.3208 47.0559V14.625Z" fill="white"/>
<path d="M60.3271 80.3183V102.354L87.7563 64.4062L60.3271 80.3183Z" fill="white" fill-opacity="0.602"/>
<path d="M60.3208 102.354V80.3146L32.9062 64.4062L60.3208 102.354Z" fill="white"/>
<path d="M60.3271 75.2203L87.7381 59.3046L60.3271 47.0635V75.2203Z" fill="white" fill-opacity="0.2"/>
<path d="M32.9062 59.3046L60.3208 75.2203V47.0635L32.9062 59.3046Z" fill="white" fill-opacity="0.602"/>
</svg>
