<svg width="43" height="43" viewBox="0 0 43 43" fill="none" xmlns="http://www.w3.org/2000/svg">
  <g filter="url(#filter0_d_105_774)">
    <path
      d="M38.4722 21.7335C36.1348 31.1085 26.6396 36.814 17.2635 34.4761C7.89123 32.1388 2.18574 22.6429 4.52415 13.2685C6.86038 3.89241 16.3557 -1.81362 25.729 0.523695C35.1045 2.86102 40.8095 12.358 38.4722 21.7335Z"
      fill="url(#paint0_linear_105_774)" />
    <path
      d="M29.2111 15.007C29.5594 12.6784 27.7865 11.4266 25.3622 10.5916L26.1486 7.43722L24.2285 6.95871L23.4629 10.0299C22.9581 9.90414 22.4397 9.78547 21.9246 9.6679L22.6957 6.57644L20.7767 6.09793L19.9897 9.25118C19.5719 9.15603 19.1618 9.06197 18.7637 8.96298L18.7658 8.95314L16.1179 8.29197L15.6071 10.3427C15.6071 10.3427 17.0317 10.6692 17.0016 10.6894C17.7793 10.8836 17.9198 11.3982 17.8963 11.8062L17.0006 15.3996C17.0541 15.4133 17.1236 15.433 17.2002 15.4636C17.1362 15.4478 17.0678 15.4303 16.9973 15.4133L15.7417 20.4472C15.6465 20.6835 15.4053 21.0379 14.8617 20.9033C14.8809 20.9312 13.4661 20.555 13.4661 20.555L12.5129 22.7528L15.0116 23.3757C15.4764 23.4922 15.932 23.6142 16.3804 23.729L15.5858 26.9194L17.5037 27.3979L18.2906 24.2414C18.8145 24.3836 19.3231 24.5149 19.8208 24.6384L19.0365 27.7802L20.9566 28.2587L21.7512 25.0743C25.0253 25.6939 27.4873 25.444 28.5236 22.4827C29.3587 20.0983 28.4821 18.723 26.7594 17.8261C28.014 17.5368 28.9589 16.7116 29.2111 15.007ZM24.8241 21.1587C24.2307 23.5431 20.2161 22.2541 18.9146 21.9309L19.969 17.7041C21.2705 18.029 25.4442 18.6721 24.8241 21.1587ZM25.418 14.9725C24.8766 17.1414 21.5352 16.0395 20.4513 15.7693L21.4072 11.9358C22.4911 12.2059 25.9818 12.7101 25.418 14.9725Z"
      fill="white" />
  </g>
  <defs>
    <filter id="filter0_d_105_774" x="0" y="1.52588e-05" width="42.9958" height="43"
      filterUnits="userSpaceOnUse" color-interpolation-filters="sRGB">
      <feFlood flood-opacity="0" result="BackgroundImageFix" />
      <feColorMatrix in="SourceAlpha" type="matrix"
        values="0 0 0 0 0 0 0 0 0 0 0 0 0 0 0 0 0 0 127 0" result="hardAlpha" />
      <feOffset dy="4" />
      <feGaussianBlur stdDeviation="2" />
      <feComposite in2="hardAlpha" operator="out" />
      <feColorMatrix type="matrix" values="0 0 0 0 0 0 0 0 0 0 0 0 0 0 0 0 0 0 0.25 0" />
      <feBlend mode="normal" in2="BackgroundImageFix" result="effect1_dropShadow_105_774" />
      <feBlend mode="normal" in="SourceGraphic" in2="effect1_dropShadow_105_774" result="shape" />
    </filter>
    <linearGradient id="paint0_linear_105_774" x1="4" y1="1.52588e-05" x2="4" y2="3500"
      gradientUnits="userSpaceOnUse">
      <stop stopColor="#F9AA4B" />
      <stop offset="1" stopColor="#F7931A" />
    </linearGradient>
  </defs>
</svg>