<svg width="30" height="30" viewBox="0 0 30 30" fill="none" xmlns="http://www.w3.org/2000/svg">
  <circle cx="15" cy="15" r="15" fill="#121C44" />
  <path
    d="M22.9414 12.4839C21.6085 7.73409 16.5565 8.16264 16.0217 8.52374C18.5198 8.66659 20.7705 10.357 21.4808 12.8846C22.1911 15.4123 21.1496 18.0154 19.0865 19.428C19.729 19.4677 24.3261 17.4003 22.9414 12.4839Z"
    fill="#F4CF31" />
  <path
    d="M11.0735 15.7774C9.53311 10.3014 13.5356 7.63886 15.5948 7C14.7168 7.0119 13.819 7.1746 12.9371 7.51188C9.51315 8.83722 7.52984 12.5037 8.308 16.075C9.2378 20.3327 13.5516 22.8762 17.7098 21.7215C18.3562 21.543 18.9628 21.2811 19.5135 20.9557C17.9492 21.3446 12.542 21.0073 11.0735 15.7774Z"
    fill="#F4CF31" />
  <path
    d="M9.52109 14.5949C9.03823 12.8767 9.10208 11.4363 9.4772 10.2459C8.3319 11.9045 7.85304 14.0076 8.30397 16.075C9.23776 20.3327 13.5516 22.8762 17.7097 21.7215C18.3562 21.543 18.9628 21.2811 19.5135 20.9557C18.1806 21.285 11.4286 21.3882 9.52109 14.5949Z"
    fill="#E08327" />
  <path
    d="M21.7642 11.8252C21.3571 10.3808 20.6069 9.41655 19.7409 8.78166C18.0489 8.09518 16.321 8.32136 16.0217 8.5277C18.5198 8.67055 20.7705 10.3609 21.4808 12.8886C21.7442 13.833 21.7642 14.7853 21.5806 15.6861C22.0355 14.6742 22.2031 13.3926 21.7642 11.8252Z"
    fill="#E08327" />
  <path
    d="M20.8943 13.2497C20.8863 13.4799 20.8224 13.6822 20.7386 13.8806C20.5471 14.3251 20.2717 14.7139 19.9485 15.0671C19.9086 15.1107 19.8887 15.1544 19.9086 15.2139C19.9286 15.2695 19.9365 15.329 19.9485 15.3885C19.9725 15.4837 19.9445 15.5671 19.8767 15.6385C19.5894 15.9242 19.302 16.2099 19.0147 16.4956C19.0067 16.5035 19.0027 16.5115 18.9948 16.5154C18.9429 16.5591 18.903 16.5511 18.891 16.4837C18.8711 16.3726 18.8511 16.2615 18.8351 16.1504C18.8192 16.0551 18.8072 15.9639 18.7912 15.8686C18.7753 15.7813 18.7912 15.698 18.8471 15.6266C18.875 15.5909 18.8711 15.5671 18.8431 15.5353C18.6157 15.3091 18.3882 15.083 18.1567 14.8568C18.1408 14.8409 18.1009 14.829 18.0889 14.8409C17.9812 14.9322 17.8614 14.9163 17.7377 14.8965C17.5741 14.8687 17.4065 14.8449 17.2429 14.8171C17.2269 14.8131 17.207 14.8092 17.191 14.8052C17.1471 14.7893 17.1352 14.7576 17.1631 14.7179C17.1751 14.702 17.191 14.6862 17.207 14.6703C17.4863 14.3925 17.7657 14.1148 18.045 13.837C18.1288 13.7537 18.2206 13.7259 18.3323 13.7576C18.3842 13.7695 18.4401 13.7814 18.492 13.7973C18.5638 13.8211 18.6117 13.7973 18.6675 13.7537C18.8551 13.6029 19.0387 13.4481 19.2382 13.3092C19.5255 13.1108 19.8328 12.9442 20.172 12.8529C20.3196 12.8132 20.4713 12.7894 20.6229 12.837C20.7785 12.8847 20.8584 12.9958 20.8863 13.1465C20.8943 13.1862 20.8943 13.2219 20.8943 13.2497ZM20.3635 13.7537C20.3715 13.5433 20.2039 13.3688 19.9924 13.3608C19.7689 13.3529 19.5894 13.5156 19.5894 13.7378C19.5854 13.9838 19.7849 14.1267 19.9605 14.1306C20.184 14.1346 20.3555 13.9759 20.3635 13.7537Z"
    fill="#E08327" />
  <path
    d="M15.5668 10.2697C15.5628 10.2737 15.5589 10.2776 15.5549 10.2816C15.6107 10.2935 15.6666 10.3054 15.7225 10.3213C15.8542 10.3649 15.9459 10.4562 16.0058 10.5752C16.0657 10.6903 16.0896 10.8094 16.0976 10.9363C16.1175 11.2617 16.0377 11.5752 15.934 11.8807C15.6746 12.6267 15.2675 13.2894 14.7368 13.8767C14.6291 13.9957 14.5173 14.1068 14.3976 14.21C14.3218 14.2735 14.2859 14.3449 14.2739 14.4401C14.238 14.702 14.1941 14.9639 14.1661 15.2298C14.1342 15.5036 14.1183 15.7774 14.0983 16.0551C14.0744 16.4083 14.0664 16.7615 14.0903 17.1186C14.1103 17.436 14.1342 17.7574 14.238 18.063C14.2659 18.1463 14.3018 18.2296 14.3497 18.305C14.4176 18.4161 14.4934 18.432 14.6131 18.3844C14.7528 18.3328 14.8605 18.2336 14.9643 18.1344C15.3952 17.7138 15.8222 17.2813 16.2612 16.8686C16.7919 16.3686 17.3426 15.8924 17.9412 15.4798C18.049 15.4044 18.1567 15.3964 18.2804 15.4083C18.2804 15.4758 18.2804 15.5433 18.2804 15.6067C18.2804 15.6186 18.2684 15.6385 18.2565 15.6425C17.6419 16.0393 17.0952 16.5115 16.5685 17.0114C16.1973 17.3646 15.8302 17.7178 15.4591 18.0709C15.3234 18.1979 15.1877 18.3249 15.0481 18.4439C14.8605 18.6066 14.645 18.7217 14.3976 18.7653C14.1741 18.805 13.9666 18.7574 13.7711 18.6503C13.5237 18.5153 13.3481 18.305 13.2084 18.0669C12.9889 17.7019 12.8572 17.2971 12.7655 16.8845C12.6577 16.4043 12.6058 15.9163 12.6098 15.4242C12.6098 15.4123 12.6098 15.4004 12.6058 15.3806C12.5899 15.3885 12.5779 15.3925 12.5699 15.4004C11.9713 15.8488 11.3488 16.2694 10.7063 16.6543C10.4469 16.8091 10.1796 16.9519 9.91221 17.0987C9.88028 17.1146 9.86831 17.1345 9.8723 17.1702C9.87629 17.2416 9.8723 17.313 9.8723 17.3924C9.85235 17.3924 9.83639 17.3924 9.81644 17.3924C9.66479 17.3924 9.50916 17.3884 9.35752 17.3924C9.31362 17.3924 9.26973 17.4043 9.22982 17.4202C8.81879 17.5947 8.39579 17.7376 7.95683 17.8249C7.60167 17.8963 7.24252 17.9241 6.87938 17.8804C6.3207 17.813 5.82587 17.5987 5.3909 17.2376C5.3071 17.1662 5.22729 17.0948 5.14747 17.0154C5.04372 16.9162 4.98386 16.7932 5.00381 16.6464C5.00781 16.6107 5.00781 16.571 5.0118 16.5353C5.02377 16.4321 5.07964 16.3527 5.1794 16.317C5.27916 16.2813 5.36297 16.3131 5.42282 16.3924C5.55052 16.5591 5.69418 16.7099 5.84981 16.8527C6.2369 17.2019 6.68384 17.4162 7.20661 17.4678C7.3782 17.4836 7.55379 17.4916 7.72937 17.4797C8.12843 17.4598 8.51152 17.3725 8.88663 17.2376C8.97443 17.2059 9.06621 17.1781 9.15799 17.1424C9.15799 17.071 9.15799 16.9995 9.15799 16.9162C9.17794 16.9162 9.1979 16.9162 9.21386 16.9162C9.3655 16.9162 9.51315 16.9162 9.66479 16.9162C9.68874 16.9162 9.71268 16.9202 9.72465 16.8884C9.72864 16.8765 9.75259 16.8646 9.76456 16.8567C10.4829 16.4956 11.1453 16.0472 11.7838 15.5671C12.0472 15.3687 12.3026 15.1623 12.5619 14.9639C12.6058 14.9322 12.6218 14.8965 12.6258 14.8449C12.6378 14.5036 12.6777 14.1663 12.7415 13.833C12.8932 13.0672 13.1326 12.3291 13.4997 11.6426C13.7152 11.2379 14.0025 10.8927 14.3856 10.6348C14.641 10.4602 14.9204 10.3411 15.2276 10.2935C15.2516 10.2895 15.2755 10.2895 15.2995 10.2856C15.3194 10.2856 15.3434 10.2856 15.3673 10.2776C15.3474 10.2697 15.3274 10.2657 15.3035 10.2578C15.3952 10.2697 15.479 10.2697 15.5668 10.2697ZM14.3896 13.9044C14.3936 13.9044 14.3976 13.9044 14.4016 13.9084C14.4255 13.8806 14.4495 13.8489 14.4734 13.8211C14.5014 13.7894 14.5253 13.7576 14.5532 13.7259C14.9164 13.3013 15.2276 12.8489 15.4711 12.345C15.6427 11.9879 15.7823 11.6188 15.8262 11.222C15.8422 11.0752 15.8502 10.9324 15.8302 10.7895C15.8182 10.7062 15.7983 10.6268 15.7344 10.5633C15.6786 10.5078 15.6387 10.4998 15.5788 10.5475C15.5309 10.5832 15.483 10.6308 15.4511 10.6824C15.3992 10.7617 15.3513 10.8411 15.3075 10.9284C15.1558 11.2379 15.0361 11.5593 14.9323 11.8887C14.7208 12.5355 14.5253 13.1902 14.3896 13.8568C14.3896 13.8687 14.3896 13.8886 14.3896 13.9044Z"
    fill="url(#paint0_linear_300_2)" />
  <defs>
    <linearGradient id="paint0_linear_300_2" x1="9.70887" y1="17.5154" x2="18.5764" y2="11.5169"
      gradientUnits="userSpaceOnUse">
      <stop stopColor="#E08326" />
      <stop offset="1" stopColor="#F3D431" />
    </linearGradient>
  </defs>
</svg>