<svg width="76" height="76" viewBox="0 0 76 76" fill="none" xmlns="http://www.w3.org/2000/svg">
  <circle cx="38" cy="38" r="38" fill="#121C44" />
  <path
    d="M64.3062 31.3078C60.1232 16.3168 44.268 17.6694 42.5898 18.8091C50.4298 19.2599 57.4932 24.5951 59.7224 32.5727C61.9517 40.5504 58.683 48.7661 52.2081 53.2245C54.2245 53.3498 68.6519 46.8249 64.3062 31.3078Z"
    fill="#F4CF31" />
  <path
    d="M27.0604 41.7027C22.2262 24.4198 34.7876 16.0163 41.2499 14C38.4946 14.0376 35.6768 14.551 32.909 15.6156C22.1636 19.7985 15.9392 31.3705 18.3814 42.642C21.2994 56.0801 34.8377 64.1078 47.8875 60.4634C49.9164 59.8998 51.82 59.0732 53.5483 58.0463C48.6389 59.2736 31.6692 58.2091 27.0604 41.7027Z"
    fill="#F4CF31" />
  <path
    d="M22.1888 37.9706C20.6734 32.5478 20.8738 28.0016 22.051 24.2445C18.4567 29.4794 16.9538 36.1171 18.369 42.642C21.2996 56.08 34.8378 64.1078 47.8876 60.4634C49.9165 59.8998 51.8201 59.0732 53.5484 58.0463C49.3655 59.0858 28.1751 59.4114 22.1888 37.9706Z"
    fill="#E08327" />
  <path
    d="M60.6116 29.2289C59.3342 24.6702 56.9797 21.627 54.262 19.6231C48.9519 17.4565 43.5291 18.1704 42.5898 18.8216C50.4298 19.2725 57.4932 24.6076 59.7224 32.5853C60.549 35.566 60.6116 38.5717 60.0355 41.4146C61.4632 38.221 61.9892 34.1758 60.6116 29.2289Z"
    fill="#E08327" />
  <path
    d="M57.8819 33.725C57.8569 34.4514 57.6565 35.0901 57.3935 35.7163C56.7924 37.119 55.9282 38.3463 54.9138 39.4609C54.7886 39.5987 54.7259 39.7364 54.7886 39.9243C54.8512 40.0996 54.8762 40.2875 54.9138 40.4753C54.9889 40.7759 54.9013 41.0389 54.6884 41.2643C53.7866 42.1661 52.8849 43.0678 51.9832 43.9695C51.9582 43.9945 51.9456 44.0196 51.9206 44.0321C51.7578 44.1699 51.6325 44.1448 51.595 43.9319C51.5324 43.5812 51.4697 43.2306 51.4196 42.8799C51.3695 42.5793 51.332 42.2913 51.2819 41.9907C51.2318 41.7152 51.2819 41.4522 51.4572 41.2268C51.5449 41.1141 51.5324 41.0389 51.4447 40.9387C50.7308 40.2249 50.017 39.511 49.2906 38.7971C49.2405 38.7471 49.1153 38.7095 49.0777 38.7471C48.7395 39.0351 48.3638 38.985 47.9756 38.9224C47.4621 38.8347 46.9361 38.7596 46.4226 38.6719C46.3725 38.6594 46.3099 38.6469 46.2598 38.6343C46.1221 38.5842 46.0845 38.4841 46.1722 38.3588C46.2097 38.3087 46.2598 38.2586 46.3099 38.2085C47.1866 37.3319 48.0633 36.4552 48.9399 35.5785C49.2029 35.3155 49.491 35.2279 49.8416 35.328C50.0044 35.3656 50.1798 35.4032 50.3426 35.4533C50.568 35.5284 50.7183 35.4533 50.8936 35.3155C51.4823 34.8396 52.0584 34.3512 52.6845 33.9129C53.5863 33.2867 54.5506 32.7607 55.6151 32.4726C56.0785 32.3474 56.5544 32.2722 57.0303 32.4225C57.5187 32.5728 57.7692 32.9235 57.8569 33.3994C57.8819 33.5246 57.8819 33.6373 57.8819 33.725ZM56.2163 35.3155C56.2413 34.6518 55.7153 34.1007 55.0516 34.0757C54.3502 34.0506 53.7866 34.5641 53.7866 35.2654C53.7741 36.0419 54.4003 36.4928 54.9514 36.5053C55.6527 36.5178 56.1912 36.0169 56.2163 35.3155Z"
    fill="#E08327" />
  <path
    d="M41.1625 24.3196C41.15 24.3322 41.1375 24.3447 41.125 24.3572C41.3003 24.3948 41.4756 24.4324 41.651 24.4825C42.0643 24.6202 42.3523 24.9083 42.5402 25.284C42.728 25.6472 42.8032 26.0229 42.8282 26.4237C42.8908 27.4506 42.6403 28.44 42.3147 29.4043C41.5007 31.7588 40.2232 33.8503 38.5576 35.7038C38.2194 36.0795 37.8688 36.4302 37.4931 36.7558C37.2551 36.9562 37.1424 37.1816 37.1048 37.4822C36.9921 38.3088 36.8543 39.1353 36.7667 39.9744C36.6665 40.8386 36.6164 41.7027 36.5538 42.5794C36.4786 43.694 36.4536 44.8086 36.5287 45.9358C36.5913 46.9377 36.6665 47.9521 36.9921 48.9164C37.0798 49.1794 37.1925 49.4424 37.3428 49.6804C37.5557 50.0311 37.7936 50.0812 38.1693 49.9309C38.6077 49.7681 38.9458 49.455 39.2714 49.1419C40.624 47.8143 41.9641 46.4492 43.3417 45.1468C45.0074 43.5688 46.7356 42.0659 48.6142 40.7634C48.9524 40.5255 49.2905 40.5004 49.6787 40.538C49.6787 40.7509 49.6787 40.9638 49.6787 41.1642C49.6787 41.2018 49.6412 41.2644 49.6036 41.2769C47.6749 42.5293 45.9592 44.0196 44.306 45.5976C43.1413 46.7122 41.9891 47.8269 40.8244 48.9415C40.3986 49.3423 39.9728 49.743 39.5344 50.1187C38.9458 50.6322 38.2695 50.9954 37.4931 51.1332C36.7917 51.2584 36.1405 51.1081 35.5268 50.77C34.7503 50.3442 34.1993 49.6804 33.761 48.929C33.0721 47.7768 32.6589 46.4993 32.3708 45.1969C32.0327 43.6815 31.8699 42.1411 31.8824 40.5881C31.8824 40.5505 31.8824 40.513 31.8699 40.4503C31.8198 40.4754 31.7822 40.4879 31.7571 40.513C29.8786 41.9281 27.9249 43.2557 25.9085 44.4705C25.0945 44.9589 24.2554 45.4098 23.4163 45.8732C23.3161 45.9232 23.2785 45.9859 23.291 46.0986C23.3036 46.324 23.291 46.5494 23.291 46.7999C23.2284 46.7999 23.1783 46.7999 23.1157 46.7999C22.6398 46.7999 22.1514 46.7874 21.6755 46.7999C21.5377 46.7999 21.3999 46.8375 21.2747 46.8876C19.9847 47.4386 18.6572 47.8895 17.2796 48.165C16.165 48.3904 15.0378 48.4781 13.8982 48.3403C12.1448 48.1274 10.5919 47.4512 9.22678 46.3115C8.96378 46.0861 8.71331 45.8606 8.46283 45.6102C8.13721 45.2971 7.94935 44.9088 8.01197 44.4454C8.02449 44.3327 8.02449 44.2075 8.03702 44.0948C8.07459 43.7691 8.24992 43.5187 8.56302 43.406C8.87611 43.2932 9.13912 43.3934 9.32697 43.6439C9.72774 44.1699 10.1786 44.6458 10.667 45.0967C11.8818 46.1988 13.2845 46.8751 14.9251 47.0379C15.4636 47.088 16.0147 47.113 16.5657 47.0754C17.8181 47.0128 19.0204 46.7373 20.1977 46.3115C20.4732 46.2113 20.7612 46.1236 21.0493 46.0109C21.0493 45.7855 21.0493 45.5601 21.0493 45.2971C21.1119 45.2971 21.1745 45.2971 21.2246 45.2971C21.7005 45.2971 22.1639 45.2971 22.6398 45.2971C22.7149 45.2971 22.7901 45.3096 22.8277 45.2094C22.8402 45.1718 22.9153 45.1342 22.9529 45.1092C25.2072 43.9695 27.2861 42.5543 29.2899 41.039C30.1165 40.4128 30.918 39.7615 31.7321 39.1353C31.8699 39.0351 31.92 38.9224 31.9325 38.7596C31.97 37.6826 32.0953 36.618 32.2957 35.566C32.7716 33.1489 33.523 30.8195 34.6752 28.6529C35.3515 27.3755 36.2532 26.2859 37.4555 25.4718C38.257 24.9208 39.1337 24.5451 40.098 24.3948C40.1732 24.3823 40.2483 24.3823 40.3234 24.3697C40.3861 24.3697 40.4612 24.3697 40.5363 24.3447C40.4737 24.3196 40.4111 24.3071 40.336 24.2821C40.624 24.3196 40.887 24.3196 41.1625 24.3196ZM37.468 35.7915C37.4805 35.7915 37.4931 35.7915 37.5056 35.804C37.5807 35.7163 37.6559 35.6161 37.731 35.5285C37.8187 35.4283 37.8938 35.3281 37.9815 35.2279C39.1212 33.8879 40.098 32.4601 40.862 30.8696C41.4005 29.7425 41.8388 28.5777 41.9766 27.3254C42.0267 26.862 42.0517 26.4111 41.9891 25.9603C41.9515 25.6973 41.8889 25.4468 41.6885 25.2464C41.5132 25.0711 41.388 25.046 41.2001 25.1963C41.0498 25.309 40.8995 25.4593 40.7993 25.6221C40.6365 25.8726 40.4863 26.1231 40.3485 26.3986C39.8726 27.3755 39.4969 28.3899 39.1712 29.4294C38.5075 31.4708 37.8938 33.5372 37.468 35.6412C37.468 35.6788 37.468 35.7414 37.468 35.7915Z"
    fill="url(#paint0_linear_164_294)" />
  <defs>
    <linearGradient id="paint0_linear_164_294" x1="22.7781" y1="47.1882" x2="50.7062" y2="28.4024"
      gradientUnits="userSpaceOnUse">
      <stop stopColor="#E08326" />
      <stop offset="1" stopColor="#F3D431" />
    </linearGradient>
  </defs>
</svg>