<svg width="35" height="35" viewBox="0 0 35 35" fill="none"
    xmlns="http://www.w3.org/2000/svg">
    <circle cx="17.5" cy="17.5" r="17.5" fill="#F3BA2F"/>
    <path d="M13.5446 15.9938L17.7012 11.8373L21.86 15.996L24.2786 13.5774L17.7012 6.99977L11.126 13.5752L13.5446 15.9938Z" fill="white"/>
    <path d="M11.837 17.7012L9.41846 15.2827L6.99977 17.7014L9.41834 20.1199L11.837 17.7012Z" fill="white"/>
    <path d="M13.5457 19.4095L17.7023 23.566L21.8609 19.4075L24.2809 21.8248L24.2797 21.8261L17.7023 28.4035L11.1269 21.8283L11.1235 21.8249L13.5457 19.4095Z" fill="white"/>
    <path d="M25.9851 20.1211L28.4038 17.7024L25.9852 15.2839L23.5666 17.7025L25.9851 20.1211Z" fill="white"/>
    <path d="M20.1548 17.7004H20.1558L17.7016 15.2461L15.8878 17.0599H15.8876L15.6794 17.2683L15.2495 17.6982L15.2461 17.7016L15.2495 17.7051L17.7016 20.1572L20.1558 17.7029L20.157 17.7016L20.1548 17.7004Z" fill="white"/>
</svg>
