<svg width="76" height="76" viewBox="0 0 76 76" fill="none" xmlns="http://www.w3.org/2000/svg">
<circle cx="38" cy="38" r="38" fill="#F1F9FB"/>
<path d="M51.2266 26.1836V36.5352H45.3672V26.1836C45.3672 22.1406 42.0859 18.8594 38.043 18.8594C34 18.8594 30.7188 22.1406 30.7188 26.1836V36.5352H24.8594V26.1836C24.8594 18.8887 30.748 13 38.043 13C45.3379 13 51.2266 18.8887 51.2266 26.1836Z" fill="#C5C9F7"/>
<path d="M46.832 33.6055H28.5676C23.2836 33.6055 19 37.8891 19 43.173C19 52.2122 24.9839 60.6196 33.8167 62.5403C46.1315 65.2182 57.0859 55.7278 57.0859 43.8594C57.0859 38.1963 52.4951 33.6055 46.832 33.6055Z" fill="#121C44"/>
<path d="M57.0859 43.8594C57.0859 54.3476 48.5313 63 38.043 63V33.6055H46.832C52.4951 33.6055 57.0859 38.1963 57.0859 43.8594Z" fill="#121C44"/>
<path d="M39.5078 46.7891V55.6758C39.5078 56.496 38.8634 57.1406 38.043 57.1406C37.2226 57.1406 36.5781 56.496 36.5781 55.6758V46.7891C36.5781 45.9687 37.2226 45.3242 38.043 45.3242C38.8634 45.3242 39.5078 45.9687 39.5078 46.7891Z" fill="white"/>
<path d="M39.5078 46.7891V55.6758C39.5078 56.496 38.8634 57.1406 38.043 57.1406V45.3242C38.8634 45.3242 39.5078 45.9687 39.5078 46.7891Z" fill="#F1F9FB"/>
<path d="M38.043 39.4648C35.6113 39.4648 33.6484 41.4276 33.6484 43.8594C33.6484 46.2909 35.6112 48.2539 38.043 48.2539C40.4747 48.2539 42.4375 46.2909 42.4375 43.8594C42.4375 41.4276 40.4747 39.4648 38.043 39.4648Z" fill="#F1F9FB"/>
</svg>
