<svg width="17" height="22" viewBox="0 0 17 22" fill="none" xmlns="http://www.w3.org/2000/svg">
<path d="M10.3725 4.98451C7.00553 4.98451 4.26617 7.72387 4.26617 11.0911C4.26617 14.4583 7.00553 17.1975 10.3725 17.1975C13.7398 17.1975 16.4791 14.4581 16.4791 11.0911C16.4791 7.72411 13.7398 4.98451 10.3725 4.98451ZM10.3725 16.5064C7.38678 16.5064 4.95774 14.0771 4.95774 11.0911C4.95774 8.10511 7.38678 5.67584 10.3725 5.67584V16.5064ZM10.7119 18.7614V21.6962C10.7119 21.8637 10.5761 22 10.4086 22C10.2406 22 10.1045 21.8644 10.1045 21.6962V18.7614C10.1045 18.5936 10.2406 18.4575 10.4086 18.4575C10.5766 18.4575 10.7119 18.5936 10.7119 18.7614ZM6.04378 16.9749C6.17935 17.0739 6.2094 17.2636 6.11084 17.3994L4.38564 19.7738C4.32651 19.8558 4.23396 19.8991 4.14021 19.8991C4.07819 19.8991 4.0157 19.8803 3.96185 19.8414C3.82628 19.7428 3.79623 19.5527 3.89479 19.4169L5.62023 17.0427C5.71854 16.9071 5.90868 16.8768 6.04378 16.9749ZM3.38422 13.2105C3.4359 13.3701 3.34864 13.5413 3.18927 13.5935L0.397746 14.5002C0.366256 14.51 0.334767 14.5151 0.303758 14.5151C0.175636 14.5151 0.0568882 14.4336 0.0150622 14.3052C-0.0371001 14.1458 0.0506385 13.9745 0.21001 13.9225L3.00154 13.0156C3.16115 12.9644 3.33206 13.0514 3.38422 13.2105ZM3.44528 8.60149C3.40345 8.72962 3.28422 8.81134 3.15658 8.81134C3.12557 8.81134 3.0936 8.8063 3.06259 8.7962L0.271066 7.88949C0.111935 7.83781 0.0246775 7.66666 0.0761187 7.50705C0.128281 7.34768 0.299672 7.2609 0.458803 7.31186L3.25033 8.21881C3.40946 8.27097 3.49696 8.44188 3.44528 8.60149ZM4.05416 2.46701C3.9556 2.3312 3.98565 2.14154 4.1217 2.04298C4.25704 1.94443 4.44718 1.97448 4.54573 2.10981L6.27117 4.48452C6.36925 4.61985 6.33968 4.80999 6.20363 4.90855C6.14954 4.94773 6.08728 4.96624 6.02575 4.96624C5.93176 4.96624 5.83897 4.92297 5.77984 4.84124L4.05416 2.46701ZM10.3021 3.23863V0.30384C10.3021 0.136055 10.4382 0 10.6059 0C10.7737 0 10.9098 0.135814 10.9098 0.30384V3.23863C10.9098 3.40618 10.7742 3.54247 10.6059 3.54247C10.4382 3.54247 10.3021 3.40618 10.3021 3.23863Z" fill="#7C86AF"/>
</svg>
