<svg width="30" height="30" viewBox="0 0 30 30" fill="none" xmlns="http://www.w3.org/2000/svg">
<circle cx="15" cy="15" r="15" fill="#F1F9FB"/>
<path fill-rule="evenodd" clip-rule="evenodd" d="M9.14058 7.8125C8.85933 6.35 9.98433 5 11.4468 5C12.7406 5 13.8093 6.06875 13.8093 7.3625V10.2875C14.1468 10.2875 14.4843 10.2313 14.8218 10.2313C15.1593 10.2313 15.4406 10.2312 15.7781 10.2875V7.3625C15.7781 6.06875 16.8468 5 18.1406 5C19.6031 5 20.7281 6.35 20.5031 7.8125L19.8843 11.2438C22.0781 12.2 23.7656 13.8875 23.7656 15.9688V17.2625C23.7656 19.0062 22.6406 20.4688 21.0093 21.425C19.3781 22.4375 17.2406 23 14.8218 23C12.4031 23 10.2656 22.4375 8.63433 21.425C7.05933 20.4688 5.93433 19.0062 5.93433 17.2625V15.9688C5.93433 13.8875 7.56558 12.2 9.75933 11.2438L9.14058 7.8125ZM19.0406 11.6937L19.7718 7.64375C19.9406 6.63125 19.2093 5.675 18.1406 5.675C17.2406 5.675 16.5093 6.40625 16.5093 7.30625V11.0187C16.2843 10.9625 16.0031 10.9625 15.7781 10.9625C15.4406 10.9625 15.1593 10.9062 14.8218 10.9062C14.4843 10.9062 14.1468 10.9063 13.8093 10.9625C13.5843 10.9625 13.3031 11.0187 13.0781 11.0187V7.3625C13.0781 6.4625 12.3468 5.73125 11.4468 5.73125C10.4343 5.73125 9.64683 6.6875 9.87183 7.7L10.6031 11.75C8.24058 12.65 6.66558 14.225 6.66558 16.025V17.3187C6.66558 20.075 10.3218 22.325 14.8218 22.325C19.3218 22.325 22.9781 20.075 22.9781 17.3187V16.025C23.0343 14.1688 21.4593 12.5937 19.0406 11.6937Z" fill="#633001"/>
<path d="M23.0343 17.2625C23.0343 20.0187 19.3781 22.2688 14.8781 22.2688C10.3781 22.2688 6.7218 20.0187 6.7218 17.2625V15.9688H23.0906V17.2625H23.0343Z" fill="#FEDC90"/>
<path fill-rule="evenodd" clip-rule="evenodd" d="M9.8718 7.7C9.6468 6.6875 10.4343 5.73125 11.4468 5.73125C12.3468 5.73125 13.0781 6.4625 13.0781 7.3625V11.075C13.6406 11.0188 14.2031 10.9625 14.8218 10.9625C15.3843 10.9625 15.9468 11.0188 16.5093 11.075V7.3625C16.5093 6.4625 17.2406 5.73125 18.1406 5.73125C19.1531 5.73125 19.9406 6.6875 19.7718 7.7L19.0406 11.75C21.4031 12.65 23.0343 14.225 23.0343 16.025C23.0343 18.7813 19.3781 21.0313 14.8781 21.0313C10.3781 21.0313 6.7218 18.7813 6.7218 16.025C6.7218 14.225 8.2968 12.65 10.6593 11.75L9.8718 7.7Z" fill="#D1884F"/>
<path d="M12.5719 15.6312C12.5719 16.3625 12.1781 16.9812 11.6719 16.9812C11.1656 16.9812 10.7719 16.3625 10.7719 15.6312C10.7719 14.9 11.1656 14.2812 11.6719 14.2812C12.1781 14.2812 12.5719 14.9 12.5719 15.6312Z" fill="#633001"/>
<path d="M18.8155 15.6312C18.8155 16.3625 18.4218 16.9812 17.9155 16.9812C17.4093 16.9812 17.0155 16.3625 17.0155 15.6312C17.0155 14.9 17.4093 14.2812 17.9155 14.2812C18.4218 14.2812 18.8155 14.9 18.8155 15.6312Z" fill="#633001"/>
</svg>
