<svg width="76" height="76" viewBox="0 0 76 76" fill="none" xmlns="http://www.w3.org/2000/svg">
<circle cx="38" cy="38" r="38" fill="#F1F9FB"/>
<path d="M31.4236 45.8506C31.4033 45.8708 31.3823 45.8904 31.3606 45.9097L22.0005 54.1697C21.6445 54.4841 21.1521 54.5933 20.6968 54.4592C20.2417 54.325 19.8869 53.9663 19.758 53.5093C19.7217 53.3806 18.8742 50.3125 19.2812 46.4905C19.8315 41.3259 22.405 37.2558 26.7234 34.7207C27.0818 34.5102 27.5159 34.4726 27.9053 34.6179C28.2947 34.7632 28.5979 35.0762 28.7305 35.4699L31.7554 44.4329C31.9238 44.9324 31.7927 45.4814 31.4236 45.8506Z" fill="#FF5B5B"/>
<path d="M53.8892 54.111C53.7285 54.2717 53.5283 54.3928 53.303 54.4589C52.8477 54.593 52.3555 54.4841 51.9993 54.1699L42.6394 45.9096C42.2227 45.5417 42.0669 44.9597 42.2446 44.4328L45.2693 35.4697C45.4024 35.0759 45.7053 34.7631 46.0947 34.6178C46.4841 34.4721 46.9182 34.5102 47.2766 34.7206C51.5952 37.2555 54.1687 41.3256 54.7188 46.4904C55.126 50.3122 54.2781 53.3803 54.242 53.5092C54.1768 53.7404 54.0537 53.9465 53.8892 54.111Z" fill="#FF193D"/>
<path d="M43.3126 16.4447L30.6876 16.4447C30.1817 16.4447 29.7164 16.7216 29.4747 17.1659C26.4989 22.6417 24.9903 28.0712 24.9901 33.3038C24.9903 34.3954 25.0577 35.5111 25.1905 36.6195C25.5755 39.8415 26.523 43.1586 28.0072 46.4787C28.9535 48.5944 30.1175 50.7106 31.4669 52.7685C33.8241 56.363 35.9237 58.529 36.0118 58.6196C36.2716 58.8857 36.628 59.0361 37.0001 59.0361C37.3663 59.0361 37.7176 58.8903 37.9764 58.6315L37.9884 58.6196C38.077 58.529 40.1766 56.363 42.5336 52.7687C43.8829 50.7109 45.047 48.5946 45.9933 46.4784C47.4772 43.1586 48.4249 39.8417 48.8097 36.6205C48.9427 35.5114 49.0101 34.3956 49.0101 33.3039C49.0101 28.0709 47.5016 22.6415 44.5255 17.1659C44.284 16.7213 43.8185 16.4447 43.3126 16.4447Z" fill="#E1F1FA"/>
<path d="M41.7294 50.6308L32.2704 50.6308C31.5721 50.6308 30.9837 51.1523 30.8998 51.8457C30.8346 52.3845 30.8016 52.9262 30.8016 53.4555C30.8016 60.0371 35.7987 65.2378 36.0113 65.4558C36.2711 65.7224 36.6275 65.8728 36.9999 65.8726C37.3663 65.8728 37.7174 65.7273 37.9762 65.4685C37.9803 65.4644 37.9845 65.4602 37.9884 65.4558C38.201 65.2378 43.1984 60.0369 43.1981 53.4555C43.1981 52.9263 43.1651 52.3845 43.1 51.8457C43.016 51.1523 42.4276 50.6308 41.7294 50.6308Z" fill="#FFF261"/>
<path d="M27.8872 46.208L27.8875 52.0115C27.8872 52.3774 28.0325 52.7288 28.2915 52.9878C28.5503 53.2466 28.9016 53.3919 29.2678 53.3919L44.7322 53.3919C45.0982 53.3921 45.4492 53.2466 45.7083 52.9876C45.9673 52.7285 46.1126 52.3777 46.1126 52.0115V46.2082L27.8872 46.208Z" fill="#1B3B6B"/>
<path d="M39.978 32.9655C39.1826 33.7609 38.1248 34.1992 36.9998 34.1992C34.6775 34.1992 32.7883 32.31 32.7881 29.9875C32.7881 28.8625 33.2263 27.8046 34.0217 27.0092C34.8171 26.2138 35.875 25.7756 37 25.7756C38.125 25.7756 39.1826 26.2136 39.9783 27.0092C40.7737 27.8046 41.2117 28.8622 41.2117 29.9872C41.2117 31.1122 40.7734 32.1701 39.978 32.9655Z" fill="#06CCAB"/>
<path d="M40.9328 33.9206C39.8823 34.9711 38.4855 35.5495 37.0002 35.5495C33.9333 35.5495 31.4382 33.0544 31.4382 29.9875C31.4382 28.5021 32.0168 27.1051 33.0671 26.0548C34.1176 25.0043 35.5144 24.4259 36.9999 24.4257C38.4858 24.4257 39.8823 25.0043 40.9328 26.0548C41.9834 27.1054 42.562 28.5019 42.562 29.9877C42.5617 31.4733 41.9834 32.87 40.9328 33.9206ZM35.0195 28.0072C34.4907 28.536 34.1992 29.2397 34.1992 29.9877C34.1994 31.5319 35.4558 32.7882 36.9999 32.7885C37.748 32.7885 38.4516 32.497 38.9804 31.9682C39.5095 31.4391 39.8007 30.7357 39.8007 29.9877C39.8007 29.2397 39.5095 28.5363 38.9804 28.0072C38.4514 27.4782 37.748 27.1869 36.9999 27.1869C36.2519 27.1869 35.5485 27.4782 35.0195 28.0072Z" fill="#1B3B6B"/>
<path d="M37.0002 7.57192C36.6276 7.57192 36.268 7.72206 36.0114 7.98891C35.8684 8.13539 32.4755 11.6444 29.4745 17.1659H44.5253C41.5244 11.6444 38.1315 8.13539 37.9885 7.98891C37.7287 7.72231 37.3723 7.57192 37.0002 7.57192Z" fill="#FF5B5B"/>
<path d="M43.312 16.4448H36.9995V59.0362C37.3657 59.0362 37.7168 58.8907 37.9756 58.6319L37.9878 58.6197C38.0762 58.5293 40.1758 56.3633 42.533 52.7688C43.8824 50.711 45.0462 48.595 45.9925 46.4788C47.4766 43.1587 48.4244 39.8418 48.8091 36.6206C48.9419 35.5117 49.0096 34.3957 49.0093 33.3042C49.0093 28.0713 47.5008 22.6418 44.5247 17.1662C44.2835 16.7214 43.8179 16.4448 43.312 16.4448Z" fill="#CDEBFC"/>
<path d="M41.7293 50.6309H36.9998L36.9995 65.8728L36.9998 65.8731C37.3662 65.8728 37.7173 65.7273 37.9761 65.4685L37.9883 65.4563C38.2012 65.238 43.198 60.0371 43.198 53.4556C43.198 52.9263 43.1651 52.3845 43.0996 51.8459C43.0159 51.1523 42.4278 50.6306 41.7293 50.6309Z" fill="#FDBF00"/>
<path d="M37 46.208V53.3921H44.7324C45.0982 53.3921 45.4495 53.2468 45.7085 52.9878C45.9675 52.7288 46.1126 52.3777 46.1128 52.0117L46.1126 46.2082L37 46.208Z" fill="#001035"/>
<path d="M37.0002 25.7756C37 25.7758 37 25.7758 37 25.7758V34.1992L37.0002 34.1989C38.125 34.1992 39.1829 33.7609 39.9783 32.9655C40.7737 32.1701 41.2119 31.1122 41.2119 29.9872C41.2119 28.8622 40.7739 27.8046 39.9785 27.0092C39.1829 26.214 38.1253 25.7756 37.0002 25.7756Z" fill="#1CADB5"/>
<path d="M36.9998 24.4257L36.9998 27.187C37.7478 27.187 38.4512 27.4782 38.9802 28.0073C39.5093 28.5363 39.8005 29.2397 39.8005 29.9878C39.8005 30.7358 39.5093 31.4392 38.9802 31.9682C38.4512 32.4973 37.7478 32.7885 36.9998 32.7885C36.9998 32.7885 36.9998 32.7885 36.9995 32.7883L36.9995 35.5495L36.9998 35.5498C38.4854 35.5495 39.8821 34.9712 40.9326 33.9206C41.9832 32.8701 42.5615 31.4734 42.5618 29.9878C42.5615 28.5022 41.9832 27.1054 40.9326 26.0549C39.8821 25.0044 38.4854 24.426 36.9998 24.4257Z" fill="#001035"/>
<path d="M36.9998 7.57195L37 17.166L44.5254 17.166C41.5244 11.6445 38.1316 8.13543 37.9885 7.98895C37.7288 7.72235 37.3723 7.57195 36.9998 7.57195Z" fill="#FF193D"/>
</svg>
