<svg width="24" height="24" viewBox="0 0 24 24" fill="none" xmlns="http://www.w3.org/2000/svg">
<g clip-path="url(#clip0_419_414)">
<path d="M12 24C5.36761 24 0 18.633 0 12C0 5.3677 5.367 0 12 0C18.6324 0 24 5.367 24 12C24 18.6323 18.633 24 12 24Z" fill="#FF9900"/>
<path d="M12 0V24C18.633 24 24 18.6323 24 12C24 5.367 18.6324 0 12 0Z" fill="#FF4F19"/>
<path d="M13.2798 7.4125C13.2798 8.01278 12.7111 8.54983 12.0003 8.54983C11.2737 8.54983 10.7051 8.01278 10.7051 7.4125C10.7051 6.81227 11.2737 6.29102 12.0003 6.29102C12.711 6.29102 13.2798 6.81227 13.2798 7.4125ZM13.2323 10.7454V16.7635C13.2323 17.1426 12.6795 17.5216 12.0003 17.5216C11.2895 17.5216 10.784 17.1426 10.784 16.7635V10.7454C10.784 10.3031 11.2895 10.0029 12.0003 10.0029C12.6795 10.003 13.2323 10.3031 13.2323 10.7454Z" fill="white"/>
<path d="M13.2798 7.4125C13.2798 6.81227 12.7111 6.29102 12.0003 6.29102H12V8.54983H12.0003C12.711 8.54983 13.2798 8.01278 13.2798 7.4125Z" fill="#BFE4F8"/>
<path d="M12.0003 10.0029H12V17.5216H12.0003C12.6795 17.5216 13.2323 17.1426 13.2323 16.7635V10.7453C13.2323 10.3031 12.6795 10.0029 12.0003 10.0029Z" fill="#BFE4F8"/>
</g>
<defs>
<clipPath id="clip0_419_414">
<rect width="24" height="24" fill="white"/>
</clipPath>
</defs>
</svg>
