<svg width="12" height="12" viewBox="0 0 12 12" fill="none" xmlns="http://www.w3.org/2000/svg">
<path d="M6 0C2.6838 0 0 2.6835 0 6C0 9.31615 2.6835 12 6 12C9.3162 12 12 9.3165 12 6C12 2.68385 9.3165 0 6 0ZM6 11.1628C3.15323 11.1628 0.837211 8.84679 0.837211 6C0.837211 3.15321 3.15323 0.837211 6 0.837211C8.84677 0.837211 11.1628 3.15321 11.1628 6C11.1628 8.84679 8.84677 11.1628 6 11.1628Z" fill="#8C8C8C"/>
<path d="M5.99973 5.00098C5.64433 5.00098 5.3916 5.15107 5.3916 5.3722V8.38125C5.3916 8.57081 5.64433 8.76033 5.99973 8.76033C6.33934 8.76033 6.61574 8.57081 6.61574 8.38125V5.37216C6.61574 5.15105 6.33934 5.00098 5.99973 5.00098Z" fill="#8C8C8C"/>
<path d="M6.00014 3.14551C5.63684 3.14551 5.35254 3.40613 5.35254 3.70625C5.35254 4.00639 5.63686 4.27491 6.00014 4.27491C6.35555 4.27491 6.63989 4.00639 6.63989 3.70625C6.63989 3.40613 6.35552 3.14551 6.00014 3.14551Z" fill="#8C8C8C"/>
</svg>
