<?xml version="1.0" standalone="no"?>
<!DOCTYPE svg PUBLIC "-//W3C//DTD SVG 20010904//EN"
 "http://www.w3.org/TR/2001/REC-SVG-20010904/DTD/svg10.dtd">
<svg version="1.0" xmlns="http://www.w3.org/2000/svg"
 width="160.000000pt" height="160.000000pt" viewBox="0 0 160.000000 160.000000"
 preserveAspectRatio="xMidYMid meet">

<g transform="translate(0.000000,160.000000) scale(0.100000,-0.100000)"
fill="#000000" stroke="none">
<path d="M751 1564 c-18 -23 -21 -41 -21 -139 0 -98 3 -116 21 -139 13 -17 30
-26 49 -26 19 0 36 9 49 26 18 23 21 41 21 139 0 98 -3 116 -21 139 -13 17
-30 26 -49 26 -19 0 -36 -9 -49 -26z"/>
<path d="M241 1354 c-12 -15 -21 -36 -21 -47 0 -19 147 -179 183 -199 28 -14
74 8 85 42 13 37 -5 65 -101 158 -84 81 -112 90 -146 46z"/>
<path d="M1213 1308 c-96 -93 -114 -121 -101 -158 11 -34 57 -56 85 -42 36 20
183 180 183 199 0 11 -9 32 -21 47 -34 44 -62 35 -146 -46z"/>
<path d="M741 1139 c-103 -20 -190 -85 -242 -181 -32 -59 -34 -69 -34 -158 0
-89 2 -99 34 -158 134 -247 470 -247 601 -1 38 71 51 173 31 244 -45 168 -227
287 -390 254z m176 -172 c117 -81 117 -253 0 -334 -35 -25 -50 -28 -117 -28
-67 0 -82 3 -117 28 -106 74 -119 226 -25 315 44 40 81 53 153 49 53 -2 74 -8
106 -30z"/>
<path d="M32 847 c-28 -30 -28 -68 1 -95 21 -20 34 -22 143 -22 113 0 122 1
142 23 28 30 28 68 -1 95 -21 20 -34 22 -143 22 -113 0 -122 -1 -142 -23z"/>
<path d="M1282 847 c-28 -30 -28 -68 1 -95 21 -20 34 -22 143 -22 113 0 122 1
142 23 28 30 28 68 -1 95 -21 20 -34 22 -143 22 -113 0 -122 -1 -142 -23z"/>
<path d="M313 407 c-57 -57 -93 -101 -93 -114 0 -11 9 -32 21 -47 34 -44 62
-35 146 46 96 93 114 121 102 158 -9 25 -44 50 -71 50 -7 0 -54 -42 -105 -93z"/>
<path d="M1143 488 c-12 -6 -26 -23 -32 -38 -12 -37 6 -65 102 -157 84 -82
112 -91 146 -47 12 15 21 36 21 47 0 24 -178 207 -201 206 -8 0 -24 -5 -36
-11z"/>
<path d="M751 314 c-18 -23 -21 -41 -21 -139 0 -98 3 -116 21 -139 28 -35 70
-35 98 0 18 23 21 41 21 139 0 98 -3 116 -21 139 -28 35 -70 35 -98 0z"/>
</g>
</svg>
