<svg width="12" height="14" viewBox="0 0 12 14" fill="none" xmlns="http://www.w3.org/2000/svg">
<path d="M1.91333 5.84877C2.44229 5.73054 3.07798 5.61102 3.79223 5.51964V4.35006C3.79223 2.98744 4.9008 1.87887 6.26342 1.87887C7.62604 1.87887 8.73461 2.98744 8.73461 4.35006V5.51964C9.44886 5.61102 10.0845 5.73054 10.6135 5.84877V4.35006C10.6135 1.95144 8.66207 0 6.26342 0C3.86477 0 1.91333 1.95144 1.91333 4.35009V5.84877Z" fill="#1ECD84"/>
<path d="M6.26323 8.7316C5.98077 8.7316 5.75098 8.9614 5.75098 9.24386C5.75098 9.52634 5.98077 9.75614 6.26323 9.75614C6.5457 9.75614 6.77549 9.52634 6.77549 9.24386C6.77552 8.9614 6.5457 8.7316 6.26323 8.7316Z" fill="#1ECD84"/>
<path d="M6.2634 6.17929C3.68537 6.17929 1.53779 6.76363 0.802002 6.99025V13.1888C1.53892 13.4153 3.69114 14 6.2634 14C8.84142 14 10.989 13.4157 11.7248 13.1891V6.99047C10.9879 6.76401 8.83568 6.17929 6.2634 6.17929ZM6.67355 10.5117V11.8578H5.85324V10.5117C5.31859 10.3383 4.93083 9.83567 4.93083 9.24395C4.93083 8.50917 5.52862 7.91138 6.2634 7.91138C6.99818 7.91138 7.59597 8.50917 7.59597 9.24395C7.59599 9.83567 7.20823 10.3383 6.67355 10.5117Z" fill="#1ECD84"/>
</svg>
