<svg width="76" height="76" viewBox="0 0 76 76" fill="none" xmlns="http://www.w3.org/2000/svg">
<circle cx="38" cy="38" r="38" fill="#F1F9FB"/>
<path d="M52.9281 25.4281V32.3503H46.4806V25.6798C46.4806 23.7523 45.6997 22.0067 44.4364 20.7434C43.1731 19.4802 41.4275 18.6992 39.5 18.6992C35.6441 18.6992 32.5194 21.8249 32.5194 25.6798V32.3503H26.0719V25.4281C26.0719 18.0236 32.0955 12 39.5 12C46.9046 12 52.9281 18.0236 52.9281 25.4281Z" fill="#C5C9F7"/>
<path d="M52.9281 25.4281V32.3503H46.4806V25.6798C46.4806 23.7523 45.6996 22.0067 44.4364 20.7434C43.1731 19.4802 41.4275 18.6992 39.5 18.6992V12C46.9046 12 52.9281 18.0236 52.9281 25.4281Z" fill="#97A1F0"/>
<path d="M57.6482 30.9148H21.3518V61H57.6482V30.9148Z" fill="#00A5FF"/>
<path d="M57.6482 30.9148H39.5V61H57.6482V30.9148Z" fill="#0087FF"/>
<path d="M43.3827 44.0012C43.3827 45.0195 42.9903 45.9459 42.3491 46.6388V51.9876H36.6509V46.6388C36.0097 45.9459 35.6173 45.0195 35.6173 44.0012C35.6173 41.8565 37.3553 40.1185 39.5 40.1185C41.6447 40.1185 43.3827 41.8565 43.3827 44.0012Z" fill="#00459D"/>
<path d="M43.3827 44.0012C43.3827 45.0195 42.9903 45.9459 42.3491 46.6388V51.9876H39.5V40.1185C41.6447 40.1185 43.3827 41.8565 43.3827 44.0012Z" fill="#002D6B"/>
</svg>
