<svg width="59" height="91" viewBox="0 0 59 91" fill="none" xmlns="http://www.w3.org/2000/svg">
<path d="M53.011 23.8551V47.8869H42.4087V23.8551C42.4087 16.5395 36.4715 10.6023 29.1559 10.6023C21.8403 10.6023 15.9031 16.5395 15.9031 23.8551V47.8869H5.30078V23.8551C5.30078 10.6553 15.9561 0 29.1559 0C42.3557 0 53.011 10.6553 53.011 23.8551Z" fill="#6FDEAF"/>
<path d="M53.0114 23.8551V47.8869H42.4091V23.8551C42.4091 16.5395 36.4718 10.6023 29.1562 10.6023V0C42.3561 0 53.0114 10.6553 53.0114 23.8551Z" fill="#6FDEAF"/>
<path d="M55.6619 37.2847H2.65057C1.16607 37.2847 0 38.4507 0 39.9352V82.521C0 83.5282 0.583125 84.4294 1.4845 84.9065C1.90841 85.1186 12.8286 90.4727 29.1562 90.4727C45.4839 90.4727 56.4041 85.1186 56.828 84.9065C57.7294 84.4294 58.3125 83.5282 58.3125 82.521V39.9352C58.3125 38.4507 57.1464 37.2847 55.6619 37.2847Z" fill="#1ECD84"/>
<path d="M58.3125 39.9352V82.521C58.3125 83.5282 57.7294 84.4294 56.828 84.9065C56.4041 85.1186 45.4839 90.4727 29.1562 90.4727V37.2847H55.6619C57.1464 37.2847 58.3125 38.4507 58.3125 39.9352Z" fill="#1ECD84"/>
<path d="M31.807 55.8386V71.742C31.807 73.2261 30.6409 74.3925 29.1564 74.3925C27.6719 74.3925 26.5059 73.2261 26.5059 71.742V55.8386C26.5059 54.3541 27.6719 53.188 29.1564 53.188C30.6409 53.188 31.807 54.3541 31.807 55.8386Z" fill="#2CF09E"/>
<path d="M31.8068 55.8386V71.742C31.8068 73.2261 30.6407 74.3925 29.1562 74.3925V53.188C30.6407 53.188 31.8068 54.3541 31.8068 55.8386Z" fill="white"/>
<path d="M37.1075 55.8386C37.1075 57.3227 35.9414 58.4891 34.4569 58.4891H23.8547C22.3702 58.4891 21.2041 57.3227 21.2041 55.8386C21.2041 54.3541 22.3702 53.188 23.8547 53.188H34.4569C35.9414 53.188 37.1075 54.3541 37.1075 55.8386Z" fill="#2CF09E"/>
<path d="M37.108 55.8386C37.108 57.3227 35.9419 58.4891 34.4574 58.4891H29.1562V53.188H34.4574C35.9419 53.188 37.108 54.3541 37.108 55.8386Z" fill="white"/>
</svg>
