<svg width="301" height="55" viewBox="0 0 301 55" fill="none" xmlns="http://www.w3.org/2000/svg">
<path d="M65.7852 20.1075C60.898 2.69167 42.3738 4.26302 40.4131 5.58703C49.5728 6.11082 57.8253 12.3089 60.4298 21.577C63.0343 30.8451 59.2154 40.3896 51.6506 45.5693C54.0063 45.7148 70.8625 38.1344 65.7852 20.1075Z" fill="#F4CF31"/>
<path d="M22.2694 32.1837C16.6214 12.1053 31.2974 2.34248 38.8475 0C35.6285 0.0436487 32.3363 0.640182 29.1026 1.8769C16.5483 6.73646 9.27613 20.1803 12.1294 33.2749C15.5387 48.8866 31.3559 58.2129 46.6025 53.9789C48.9729 53.3242 51.197 52.3639 53.2162 51.1709C47.4805 52.5967 27.654 51.36 22.2694 32.1837Z" fill="#F4CF31"/>
<path d="M16.5774 27.8479C14.807 21.5479 15.0411 16.2664 16.4165 11.9016C12.2171 17.9833 10.4612 25.6946 12.1147 33.2749C15.5386 48.8866 31.3558 58.2129 46.6024 53.9789C48.9728 53.3242 51.1969 52.3639 53.2161 51.1709C48.329 52.3785 23.5716 52.7568 16.5774 27.8479Z" fill="#E08327"/>
<path d="M61.4687 17.6923C59.9762 12.3962 57.2254 8.86067 54.0502 6.53274C47.8462 4.01566 41.5106 4.84499 40.4131 5.60157C49.5728 6.12535 57.8253 12.3235 60.4298 21.5916C61.3955 25.0544 61.4687 28.5463 60.7956 31.849C62.4637 28.1389 63.0782 23.4394 61.4687 17.6923Z" fill="#E08327"/>
<path d="M58.2789 22.9156C58.2496 23.7595 58.0155 24.5015 57.7082 25.229C57.0059 26.8585 55.9963 28.2844 54.8111 29.5793C54.6647 29.7393 54.5916 29.8994 54.6647 30.1176C54.7379 30.3213 54.7672 30.5396 54.8111 30.7578C54.8989 31.107 54.7964 31.4126 54.5477 31.6744C53.4942 32.722 52.4407 33.7696 51.3872 34.8172C51.3579 34.8462 51.3433 34.8753 51.314 34.8899C51.1238 35.0499 50.9775 35.0208 50.9336 34.7735C50.8604 34.3661 50.7872 33.9587 50.7287 33.5513C50.6702 33.2021 50.6263 32.8675 50.5678 32.5183C50.5092 32.1982 50.5678 31.8927 50.7726 31.6308C50.875 31.4998 50.8604 31.4126 50.758 31.2962C49.924 30.4668 49.0899 29.6375 48.2413 28.8082C48.1827 28.75 48.0364 28.7063 47.9925 28.75C47.5975 29.0846 47.1585 29.0264 46.7049 28.9537C46.105 28.8518 45.4904 28.7645 44.8905 28.6627C44.832 28.6481 44.7588 28.6336 44.7003 28.619C44.5394 28.5608 44.4955 28.4444 44.5979 28.2989C44.6418 28.2407 44.7003 28.1825 44.7588 28.1243C45.7831 27.1059 46.8073 26.0874 47.8316 25.0689C48.1388 24.7634 48.4754 24.6615 48.8851 24.7779C49.0753 24.8216 49.2801 24.8652 49.4704 24.9234C49.7337 25.0107 49.9093 24.9234 50.1142 24.7634C50.8019 24.2105 51.475 23.6431 52.2066 23.1338C53.2601 22.4064 54.3867 21.7953 55.6305 21.4606C56.1719 21.3151 56.7279 21.2278 57.2839 21.4024C57.8545 21.577 58.1472 21.9844 58.2496 22.5373C58.2789 22.6828 58.2789 22.8137 58.2789 22.9156ZM56.3328 24.7634C56.3621 23.9923 55.7475 23.3521 54.972 23.323C54.1526 23.2939 53.4942 23.8904 53.4942 24.7052C53.4795 25.6073 54.2112 26.1311 54.855 26.1456C55.6744 26.1601 56.3035 25.5782 56.3328 24.7634Z" fill="#E08327"/>
<path d="M38.7451 11.9889C38.7304 12.0034 38.7158 12.018 38.7012 12.0325C38.906 12.0762 39.1109 12.1198 39.3157 12.178C39.7986 12.3381 40.1351 12.6727 40.3546 13.1092C40.5741 13.5311 40.6619 13.9676 40.6911 14.4332C40.7643 15.6263 40.4717 16.7757 40.0912 17.896C39.1401 20.6313 37.6477 23.0611 35.7016 25.2144C35.3065 25.6509 34.8968 26.0583 34.4579 26.4366C34.1799 26.6694 34.0482 26.9313 34.0043 27.2805C33.8726 28.2408 33.7116 29.201 33.6092 30.1758C33.4922 31.1798 33.4336 32.1837 33.3605 33.2022C33.2727 34.4971 33.2434 35.792 33.3312 37.1014C33.4044 38.2654 33.4922 39.4439 33.8726 40.5642C33.975 40.8698 34.1067 41.1753 34.2823 41.4518C34.531 41.8592 34.809 41.9174 35.248 41.7428C35.7601 41.5536 36.1552 41.1899 36.5356 40.8261C38.1159 39.2839 39.6815 37.698 41.2911 36.1848C43.2371 34.3516 45.2563 32.6056 47.4512 31.0925C47.8462 30.816 48.2413 30.7869 48.6949 30.8306C48.6949 31.0779 48.6949 31.3253 48.6949 31.5581C48.6949 31.6017 48.651 31.6745 48.6071 31.689C46.3537 33.144 44.3492 34.8754 42.4177 36.7086C41.0569 38.0035 39.7108 39.2984 38.35 40.5933C37.8525 41.0589 37.355 41.5245 36.8429 41.961C36.1552 42.5575 35.3651 42.9795 34.4579 43.1395C33.6385 43.285 32.8776 43.1104 32.1606 42.7176C31.2535 42.2229 30.6096 41.4518 30.0975 40.5788C29.2928 39.2402 28.8099 37.7562 28.4734 36.243C28.0783 34.4825 27.8881 32.6929 27.9027 30.8888C27.9027 30.8451 27.9027 30.8015 27.8881 30.7287C27.8295 30.7578 27.7857 30.7724 27.7564 30.8015C25.5616 32.4456 23.279 33.9878 20.9232 35.3991C19.9721 35.9666 18.9918 36.4904 18.0114 37.0287C17.8944 37.0869 17.8505 37.1596 17.8651 37.2906C17.8797 37.5525 17.8651 37.8144 17.8651 38.1054C17.7919 38.1054 17.7334 38.1054 17.6603 38.1054C17.1042 38.1054 16.5336 38.0908 15.9776 38.1054C15.8166 38.1054 15.6557 38.149 15.5093 38.2072C14.0022 38.8474 12.4512 39.3712 10.8417 39.6913C9.53946 39.9532 8.22258 40.055 6.89106 39.895C4.84257 39.6476 3.02819 38.8619 1.4333 37.5379C1.12602 37.276 0.833382 37.0141 0.540741 36.7232C0.160307 36.3594 -0.0591741 35.9084 0.0139863 35.37C0.0286183 35.2391 0.0286185 35.0936 0.0432505 34.9627C0.0871467 34.5844 0.291996 34.2934 0.657797 34.1624C1.0236 34.0315 1.33087 34.1479 1.55035 34.4389C2.01858 35.05 2.54533 35.6028 3.11598 36.1266C4.5353 37.407 6.17409 38.1927 8.09089 38.3818C8.72007 38.44 9.36388 38.4691 10.0077 38.4255C11.4709 38.3527 12.8756 38.0326 14.251 37.5379C14.5729 37.4215 14.9094 37.3197 15.246 37.1887C15.246 36.9269 15.246 36.665 15.246 36.3594C15.3191 36.3594 15.3923 36.3594 15.4508 36.3594C16.0068 36.3594 16.5482 36.3594 17.1042 36.3594C17.192 36.3594 17.2798 36.374 17.3237 36.2576C17.3384 36.2139 17.4261 36.1703 17.47 36.1412C20.1038 34.8172 22.5327 33.1731 24.8739 31.4126C25.8396 30.6851 26.776 29.9285 27.7271 29.201C27.8881 29.0846 27.9466 28.9537 27.9612 28.7645C28.0051 27.5133 28.1515 26.2766 28.3856 25.0544C28.9416 22.2463 29.8195 19.5401 31.1657 17.023C31.9558 15.539 33.0093 14.2732 34.414 13.3274C35.3504 12.6872 36.3747 12.2508 37.5013 12.0762C37.5891 12.0616 37.6769 12.0616 37.7647 12.0471C37.8379 12.0471 37.9257 12.0471 38.0135 12.018C37.9403 11.9889 37.8671 11.9743 37.7794 11.9452C38.1159 11.9889 38.4232 11.9889 38.7451 11.9889ZM34.4286 25.3163C34.4432 25.3163 34.4579 25.3163 34.4725 25.3308C34.5603 25.229 34.6481 25.1126 34.7359 25.0107C34.8383 24.8943 34.9261 24.778 35.0285 24.6616C36.36 23.1047 37.5013 21.4461 38.3939 19.5983C39.0231 18.2888 39.5352 16.9357 39.6962 15.4808C39.7547 14.9424 39.7839 14.4186 39.7108 13.8949C39.6669 13.5893 39.5937 13.2983 39.3596 13.0655C39.1548 12.8618 39.0084 12.8327 38.789 13.0073C38.6134 13.1383 38.4378 13.3129 38.3207 13.502C38.1305 13.793 37.9549 14.084 37.794 14.4041C37.238 15.539 36.799 16.7175 36.4186 17.9251C35.6431 20.2967 34.9261 22.6974 34.4286 25.1417C34.4286 25.1853 34.4286 25.2581 34.4286 25.3163Z" fill="url(#paint0_linear_27_25666)"/>
<path d="M90.67 24.11V29.39C90.67 33.23 90.67 35.3 91.3 35.84C91.81 36.29 92.59 36.5 94.93 36.5C96.52 36.5 97.69 36.47 98.44 35.66C98.8 35.27 99.16 34.43 99.22 33.86C99.25 33.59 99.31 33.41 99.55 33.41C99.76 33.41 99.79 33.56 99.79 33.92C99.79 34.25 99.58 36.5 99.34 37.37C99.16 38.03 99.01 38.18 97.45 38.18C95.29 38.18 93.73 38.12 92.38 38.09C91.03 38.03 89.95 38 88.72 38C88.39 38 87.73 38 87.01 38.03C86.32 38.03 85.54 38.09 84.94 38.09C84.55 38.09 84.34 38 84.34 37.79C84.34 37.64 84.46 37.55 84.82 37.55C85.27 37.55 85.63 37.49 85.9 37.43C86.5 37.31 86.65 36.65 86.77 35.78C86.92 34.52 86.92 32.15 86.92 29.39V24.11C86.92 19.55 86.92 18.71 86.86 17.75C86.8 16.73 86.56 16.25 85.57 16.04C85.33 15.98 84.97 15.95 84.58 15.95C84.25 15.95 84.07 15.89 84.07 15.68C84.07 15.47 84.28 15.41 84.73 15.41C86.14 15.41 88.03 15.5 88.84 15.5C89.56 15.5 91.75 15.41 92.92 15.41C93.34 15.41 93.55 15.47 93.55 15.68C93.55 15.89 93.37 15.95 93.01 15.95C92.68 15.95 92.2 15.98 91.84 16.04C91.03 16.19 90.79 16.7 90.73 17.75C90.67 18.71 90.67 19.55 90.67 24.11ZM102.758 29.93V26.18C102.758 22.31 102.788 21.59 102.728 20.78C102.668 19.88 102.428 19.64 101.588 19.4C101.378 19.34 100.928 19.31 100.568 19.31C100.268 19.31 100.118 19.22 100.118 19.04C100.118 18.86 100.298 18.8 100.688 18.8C102.098 18.8 103.868 18.86 104.648 18.86C105.308 18.86 107.078 18.8 108.038 18.8C108.428 18.8 108.608 18.86 108.608 19.04C108.608 19.22 108.458 19.31 108.188 19.31C107.888 19.31 107.738 19.34 107.408 19.4C106.718 19.52 106.508 19.88 106.448 20.78C106.388 21.59 106.388 22.31 106.388 26.18V29.75C106.388 33.47 107.108 34.91 108.398 35.93C109.568 36.86 110.828 36.95 111.728 36.95C112.868 36.95 114.218 36.62 115.268 35.6C116.738 34.22 116.798 32 116.798 29.39V26.18C116.798 22.31 116.768 21.59 116.738 20.78C116.678 19.91 116.468 19.64 115.628 19.4C115.418 19.34 114.968 19.31 114.668 19.31C114.368 19.31 114.218 19.22 114.218 19.04C114.218 18.86 114.398 18.8 114.758 18.8C116.108 18.8 117.878 18.86 117.908 18.86C118.208 18.86 119.978 18.8 120.998 18.8C121.358 18.8 121.538 18.86 121.538 19.04C121.538 19.22 121.388 19.31 121.088 19.31C120.788 19.31 120.638 19.34 120.308 19.4C119.588 19.52 119.408 19.88 119.348 20.78C119.318 21.59 119.288 22.31 119.288 26.18V28.91C119.288 31.76 118.988 34.76 116.768 36.59C114.908 38.15 112.898 38.42 111.188 38.42C109.808 38.42 107.078 38.36 105.158 36.68C103.808 35.51 102.758 33.62 102.758 29.93ZM136.171 38.42C132.571 38.42 129.511 37.67 127.111 35.66C124.501 33.47 123.811 30.59 123.811 28.13C123.811 26.39 124.381 23.39 126.901 21.14C128.821 19.46 131.341 18.44 135.271 18.44C136.921 18.44 137.911 18.56 139.111 18.71C140.101 18.86 140.971 19.04 141.751 19.13C142.051 19.16 142.141 19.28 142.141 19.43C142.141 19.64 142.081 19.94 142.021 20.84C141.961 21.68 141.961 23.09 141.931 23.6C141.901 23.96 141.811 24.23 141.571 24.23C141.361 24.23 141.301 24.02 141.301 23.69C141.271 22.88 140.941 21.98 140.281 21.32C139.381 20.45 137.611 19.82 135.181 19.82C132.871 19.82 131.401 20.24 130.201 21.26C128.251 22.94 127.771 25.4 127.771 27.89C127.771 33.95 132.451 36.83 135.991 36.83C138.331 36.83 139.621 36.65 140.671 35.48C141.121 34.97 141.481 34.25 141.571 33.77C141.631 33.38 141.691 33.26 141.901 33.26C142.081 33.26 142.201 33.5 142.201 33.71C142.201 34.01 141.901 36.23 141.631 37.1C141.511 37.55 141.391 37.67 140.941 37.85C139.891 38.27 137.881 38.42 136.171 38.42ZM151.293 26.18V27.32H151.413C152.313 26.36 156.153 22.58 156.933 21.71C157.683 20.87 158.253 20.27 158.253 19.82C158.253 19.55 158.133 19.37 157.893 19.31C157.653 19.25 157.533 19.19 157.533 19.04C157.533 18.86 157.683 18.8 157.953 18.8C158.523 18.8 159.963 18.86 160.683 18.86C161.493 18.86 162.963 18.8 163.773 18.8C164.043 18.8 164.223 18.86 164.223 19.04C164.223 19.22 164.073 19.31 163.833 19.31C163.443 19.31 162.783 19.43 162.303 19.61C161.463 19.91 160.623 20.45 159.513 21.5C158.673 22.28 154.743 26 153.933 26.93C154.863 28.13 160.053 33.53 161.073 34.49C162.243 35.54 163.263 36.65 164.673 37.22C165.453 37.55 165.993 37.55 166.293 37.55C166.503 37.55 166.653 37.67 166.653 37.82C166.653 38 166.503 38.09 166.023 38.09H163.713C162.933 38.09 162.453 38.09 161.883 38.03C160.473 37.91 159.603 37.37 158.463 36.38C157.323 35.39 152.253 29.51 151.683 28.73L151.413 28.37H151.293V30.68C151.293 33.02 151.293 35.03 151.353 36.14C151.413 36.86 151.653 37.34 152.313 37.46C152.673 37.52 153.273 37.55 153.603 37.55C153.813 37.55 153.963 37.7 153.963 37.82C153.963 38 153.753 38.09 153.453 38.09C151.983 38.09 150.093 38 149.433 38C148.833 38 147.153 38.09 146.103 38.09C145.773 38.09 145.593 38 145.593 37.82C145.593 37.7 145.683 37.55 146.013 37.55C146.403 37.55 146.703 37.52 146.943 37.46C147.483 37.34 147.633 36.86 147.723 36.11C147.843 35.03 147.843 33.02 147.843 30.68V26.18C147.843 22.31 147.843 21.59 147.813 20.78C147.753 19.91 147.513 19.64 146.673 19.4C146.463 19.34 146.013 19.31 145.623 19.31C145.353 19.31 145.173 19.22 145.173 19.04C145.173 18.86 145.383 18.8 145.773 18.8C147.153 18.8 148.833 18.86 149.463 18.86C150.093 18.86 151.983 18.8 152.853 18.8C153.243 18.8 153.423 18.86 153.423 19.04C153.423 19.22 153.273 19.31 153.063 19.31C152.793 19.31 152.643 19.34 152.313 19.4C151.593 19.52 151.383 19.88 151.323 20.78C151.293 21.59 151.293 22.31 151.293 26.18ZM171.231 33.56V31.46C171.231 30.08 170.991 29.54 170.631 28.79C170.451 28.4 166.851 22.79 165.921 21.44C165.261 20.51 164.721 19.91 164.211 19.64C163.881 19.46 163.431 19.31 163.101 19.31C162.891 19.31 162.711 19.22 162.711 19.04C162.711 18.86 162.891 18.8 163.221 18.8C163.671 18.8 165.651 18.86 166.521 18.86C167.091 18.86 168.321 18.8 169.521 18.8C169.761 18.8 169.911 18.86 169.911 19.04C169.911 19.25 169.731 19.25 169.311 19.37C169.101 19.43 168.951 19.55 168.951 19.76C168.951 19.97 169.071 20.27 169.281 20.63C169.761 21.41 173.211 27.38 173.661 28.1C173.991 27.5 177.201 22.04 177.591 21.26C177.861 20.69 177.981 20.24 177.981 19.91C177.981 19.67 177.861 19.43 177.411 19.34C177.171 19.28 176.931 19.25 176.931 19.04C176.931 18.86 177.081 18.8 177.381 18.8C178.251 18.8 179.181 18.86 179.961 18.86C180.531 18.86 182.271 18.8 182.781 18.8C183.081 18.8 183.261 18.86 183.261 19.01C183.261 19.19 183.051 19.31 182.751 19.31C182.481 19.31 182.001 19.43 181.611 19.61C181.041 19.88 180.801 20.12 180.231 20.81C179.361 21.83 175.581 27.89 175.101 28.97C174.711 29.9 174.771 30.68 174.771 31.52V33.56C174.771 33.98 174.771 35.03 174.831 36.11C174.891 36.86 175.131 37.34 175.911 37.46C176.301 37.52 176.871 37.55 177.231 37.55C177.531 37.55 177.681 37.7 177.681 37.82C177.681 38 177.471 38.09 177.111 38.09C175.461 38.09 173.691 38 172.971 38C172.311 38 170.541 38.09 169.551 38.09C169.191 38.09 168.981 38.03 168.981 37.82C168.981 37.7 169.101 37.55 169.401 37.55C169.761 37.55 170.091 37.52 170.331 37.46C170.871 37.34 171.081 36.86 171.141 36.11C171.231 35.03 171.231 33.98 171.231 33.56Z" fill="#E08326"/>
<path d="M184.816 35.09L187.786 15.77C187.876 15.26 188.056 14.99 188.296 14.99C188.536 14.99 188.716 15.14 189.106 15.92L197.296 32.6L205.456 15.71C205.696 15.23 205.846 14.99 206.116 14.99C206.386 14.99 206.566 15.29 206.656 15.92L209.386 34.28C209.656 36.17 209.956 37.04 210.856 37.31C211.726 37.58 212.326 37.61 212.716 37.61C212.986 37.61 213.196 37.64 213.196 37.82C213.196 38.06 212.836 38.15 212.416 38.15C211.666 38.15 207.526 38.09 206.326 38C205.636 37.94 205.456 37.85 205.456 37.67C205.456 37.52 205.576 37.43 205.786 37.34C205.966 37.28 206.056 36.89 205.936 36.05L204.136 23H204.016L197.476 36.38C196.786 37.79 196.636 38.06 196.366 38.06C196.096 38.06 195.796 37.46 195.316 36.56C194.596 35.18 192.226 30.59 191.866 29.75C191.596 29.12 189.796 25.58 188.746 23.33H188.626L187.066 35.03C187.006 35.57 186.976 35.96 186.976 36.44C186.976 37.01 187.366 37.28 187.876 37.4C188.416 37.52 188.836 37.55 189.136 37.55C189.376 37.55 189.586 37.61 189.586 37.76C189.586 38.03 189.316 38.09 188.866 38.09C187.606 38.09 186.256 38 185.716 38C185.146 38 183.706 38.09 182.746 38.09C182.446 38.09 182.206 38.03 182.206 37.76C182.206 37.61 182.386 37.55 182.686 37.55C182.926 37.55 183.136 37.55 183.586 37.46C184.426 37.28 184.666 36.11 184.816 35.09ZM225.138 38.42C217.458 38.42 214.338 32.96 214.338 28.43C214.338 24.08 217.398 18.44 225.408 18.44C232.068 18.44 236.208 22.13 236.208 27.98C236.208 33.83 231.948 38.42 225.138 38.42ZM226.218 37.04C228.078 37.04 232.278 36.17 232.278 28.91C232.278 23.27 228.888 19.79 224.628 19.79C221.688 19.79 218.238 21.35 218.238 27.65C218.238 32.9 221.238 37.04 226.218 37.04ZM249.953 38.42C242.273 38.42 239.153 32.96 239.153 28.43C239.153 24.08 242.213 18.44 250.223 18.44C256.883 18.44 261.023 22.13 261.023 27.98C261.023 33.83 256.763 38.42 249.953 38.42ZM251.033 37.04C252.893 37.04 257.093 36.17 257.093 28.91C257.093 23.27 253.703 19.79 249.443 19.79C246.503 19.79 243.053 21.35 243.053 27.65C243.053 32.9 246.053 37.04 251.033 37.04ZM267.289 24.2L267.589 34.61C267.649 36.59 267.979 37.19 268.489 37.37C268.939 37.52 269.449 37.55 269.869 37.55C270.169 37.55 270.319 37.67 270.319 37.82C270.319 38.03 270.079 38.09 269.719 38.09C268.009 38.09 266.779 38 266.299 38C266.059 38 264.799 38.09 263.449 38.09C263.089 38.09 262.849 38.06 262.849 37.82C262.849 37.67 263.029 37.55 263.269 37.55C263.629 37.55 264.109 37.52 264.469 37.43C265.159 37.25 265.249 36.56 265.279 34.34L265.519 19.22C265.519 18.71 265.699 18.35 265.969 18.35C266.299 18.35 266.659 18.74 267.109 19.19C267.439 19.52 271.399 23.57 275.239 27.32C277.039 29.09 280.549 32.69 280.939 33.05H281.059L280.789 21.71C280.759 20.15 280.519 19.7 279.889 19.46C279.499 19.31 278.869 19.31 278.509 19.31C278.179 19.31 278.089 19.19 278.089 19.04C278.089 18.83 278.359 18.8 278.749 18.8C280.129 18.8 281.539 18.86 282.109 18.86C282.409 18.86 283.399 18.8 284.689 18.8C285.049 18.8 285.289 18.83 285.289 19.04C285.289 19.19 285.139 19.31 284.839 19.31C284.569 19.31 284.359 19.31 284.029 19.4C283.309 19.61 283.099 20.06 283.069 21.5L282.769 37.58C282.769 38.15 282.559 38.39 282.349 38.39C281.899 38.39 281.539 38.12 281.269 37.85C279.619 36.32 276.319 33.17 273.559 30.5C270.679 27.74 267.889 24.65 267.379 24.2H267.289Z" fill="#F4CF31"/>
<defs>
<linearGradient id="paint0_linear_27_25666" x1="17.2658" y1="38.5564" x2="49.7802" y2="16.5618" gradientUnits="userSpaceOnUse">
<stop stopColor="#E08326"/>
<stop offset="1" stopColor="#F3D431"/>
</linearGradient>
</defs>
</svg>
