<svg width="24" height="24" viewBox="0 0 24 24" fill="none" xmlns="http://www.w3.org/2000/svg">
<path d="M23.7267 22.4071L17.8695 16.5501C19.3254 14.7993 20.2025 12.5512 20.2025 10.1016C20.2025 4.53154 15.6711 0 10.1013 0C4.53141 0 0 4.53154 0 10.1016C0 15.6712 4.53141 20.2024 10.1013 20.2024C12.5508 20.2024 14.7991 19.3254 16.5498 17.8695L22.4071 23.7267C22.5893 23.9089 22.8281 24 23.0669 24C23.3056 24 23.5445 23.9089 23.7268 23.7267C24.0912 23.3623 24.0912 22.7715 23.7267 22.4071ZM1.86621 10.1016C1.86621 5.56057 5.56044 1.86621 10.1013 1.86621C14.6421 1.86621 18.3362 5.56057 18.3362 10.1016C18.3362 14.6422 14.6421 18.3362 10.1013 18.3362C5.56044 18.3362 1.86621 14.6422 1.86621 10.1016Z" fill="black"/>
</svg>
