<svg version="1.0" xmlns="http://www.w3.org/2000/svg"
 width="172.000000pt" height="167.000000pt" viewBox="0 0 172.000000 167.000000"
 preserveAspectRatio="xMidYMid meet">

<g transform="translate(0.000000,167.000000) scale(0.000000,-0.005000)"
fill="#000" stroke="none">
<path d="M1006 1588 c-3 -7 -13 -40 -23 -73 l-18 -59 -67 -20 c-92 -26 -93
-47 -3 -71 36 -10 68 -22 71 -27 3 -5 14 -37 23 -71 10 -36 23 -62 31 -62 8 0
21 26 31 62 9 34 20 66 23 71 3 5 35 17 71 27 49 13 65 22 65 35 0 13 -16 22
-65 35 -36 10 -68 22 -71 27 -3 5 -14 37 -23 70 -17 60 -36 84 -45 56z"/>
<path d="M600 1240 c-236 -33 -425 -187 -492 -403 -32 -102 -32 -272 0 -374
55 -178 217 -336 392 -383 218 -59 429 -5 586 150 102 100 125 169 68 207 -22
14 -30 14 -89 -2 -171 -47 -347 38 -423 203 -21 47 -26 72 -26 138 0 71 4 90
31 145 35 70 84 123 159 172 34 23 50 40 52 58 4 37 -31 76 -76 83 -81 12
-129 14 -182 6z m-20 -155 c0 -3 -11 -23 -25 -44 -44 -65 -67 -140 -72 -231
-16 -267 139 -464 412 -525 l30 -7 -23 -19 c-40 -32 -146 -59 -232 -59 -232 0
-415 157 -450 386 -32 204 83 405 276 483 48 19 84 26 84 16z"/>
<path d="M1358 1238 c-9 -7 -29 -55 -45 -107 l-28 -93 -90 -27 c-106 -31 -115
-36 -115 -61 0 -25 9 -30 115 -61 l90 -27 28 -93 c16 -52 34 -100 39 -106 21
-25 43 6 73 102 l30 97 90 27 c106 31 115 36 115 61 0 25 -9 30 -115 61 l-90
27 -28 93 c-33 107 -45 126 -69 107z"/>
</g>
</svg>
