<svg width="26" height="32" viewBox="0 0 26 32" fill="none" xmlns="http://www.w3.org/2000/svg">
<path d="M21.75 11.75H19.4977V6.61062C19.4977 2.9655 16.4696 0 12.7477 0C9.02575 0 5.99769 2.9655 5.99769 6.61062V11.75H3.75C1.68225 11.75 0 13.4323 0 15.5V28.25C0 30.3177 1.68225 32 3.75 32H21.75C23.8177 32 25.5 30.3177 25.5 28.25V15.5C25.5 13.4323 23.8177 11.75 21.75 11.75ZM8.49769 6.61062C8.49769 4.344 10.4043 2.5 12.7477 2.5C15.0911 2.5 16.9977 4.344 16.9977 6.61062V11.75H8.49769V6.61062ZM23 28.25C23 28.9393 22.4393 29.5 21.75 29.5H3.75C3.06075 29.5 2.5 28.9393 2.5 28.25V15.5C2.5 14.8108 3.06075 14.25 3.75 14.25H21.75C22.4393 14.25 23 14.8108 23 15.5V28.25Z" fill="black"/>
<path d="M12.75 17.875C11.4728 17.875 10.4375 18.9103 10.4375 20.1875C10.4375 21.003 10.86 21.7194 11.4977 22.1311V24.875C11.4977 25.5653 12.0573 26.125 12.7477 26.125C13.438 26.125 13.9977 25.5653 13.9977 24.875V22.1341C14.6379 21.7228 15.0625 21.005 15.0625 20.1875C15.0625 18.9103 14.0272 17.875 12.75 17.875Z" fill="black"/>
</svg>
