<svg width="15" height="19" viewBox="0 0 15 19" fill="none" xmlns="http://www.w3.org/2000/svg">
<path d="M12.7941 6.91177H11.4692V3.8886C11.4692 1.74441 9.68801 0 7.49864 0C5.30926 0 3.52805 1.74441 3.52805 3.8886V6.91177H2.20588C0.989559 6.91177 0 7.90132 0 9.11765V16.6176C0 17.834 0.989559 18.8235 2.20588 18.8235H12.7941C14.0104 18.8235 15 17.834 15 16.6176V9.11765C15 7.90132 14.0104 6.91177 12.7941 6.91177ZM4.99864 3.8886C4.99864 2.55529 6.12015 1.47059 7.49864 1.47059C8.87713 1.47059 9.99864 2.55529 9.99864 3.8886V6.91177H4.99864V3.8886ZM13.5294 16.6176C13.5294 17.0231 13.1996 17.3529 12.7941 17.3529H2.20588C1.80044 17.3529 1.47059 17.0231 1.47059 16.6176V9.11765C1.47059 8.71221 1.80044 8.38235 2.20588 8.38235H12.7941C13.1996 8.38235 13.5294 8.71221 13.5294 9.11765V16.6176Z" fill="black"/>
<path d="M7.49994 10.5146C6.74866 10.5146 6.13965 11.1237 6.13965 11.8749C6.13965 12.3546 6.38818 12.776 6.76329 13.0183V14.6323C6.76329 15.0384 7.09248 15.3676 7.49858 15.3676C7.90465 15.3676 8.23388 15.0384 8.23388 14.6323V13.02C8.61049 12.7781 8.86024 12.3558 8.86024 11.8749C8.86024 11.1237 8.25123 10.5146 7.49994 10.5146Z" fill="black"/>
</svg>
