<svg width="14" height="8" viewBox="0 0 14 8" fill="none" xmlns="http://www.w3.org/2000/svg">
<path d="M6.59951 0.799955C8.28639 0.799955 9.7141 1.56889 10.6148 2.21406C11.6819 2.9784 12.2311 3.71774 12.3735 3.99973C12.2309 4.2817 11.682 5.02104 10.6148 5.7854C9.7141 6.43054 8.28639 7.19948 6.59951 7.19948C4.91264 7.19948 3.48495 6.43054 2.58421 5.7854C1.51688 5.02104 0.96792 4.2817 0.825322 3.99973C0.96792 3.71774 1.51688 2.9784 2.584 2.21406C3.48495 1.56889 4.91264 0.799955 6.59951 0.799955ZM6.59951 0C2.95479 0 0 3.19977 0 3.99973C0 4.79968 2.95479 7.99944 6.59951 7.99944C10.2443 7.99944 13.199 4.79966 13.199 3.99973C13.199 3.1998 10.2443 0 6.59951 0ZM6.59951 1.59991C5.27421 1.59991 4.19969 2.67442 4.19969 3.99973C4.19969 5.32501 5.27421 6.39955 6.59951 6.39955C7.92482 6.39955 8.99933 5.32501 8.99933 3.99973C8.99933 2.67442 7.92482 1.59991 6.59951 1.59991ZM5.95336 3.99973C5.3926 3.99973 4.93803 3.54515 4.93803 2.98439C4.93803 2.42363 5.3926 1.96908 5.95336 1.96908C6.51412 1.96908 6.9687 2.42365 6.9687 2.98439C6.9687 3.54515 6.51412 3.99973 5.95336 3.99973Z" fill="#8C8C8C"/>
</svg>
