<svg width="12" height="12" viewBox="0 0 12 12" fill="none" xmlns="http://www.w3.org/2000/svg">
<path d="M11.2805 5.28035L6.61371 5.29446V0.719523C6.61371 0.3209 6.29281 0 5.89419 0C5.49569 0 5.17466 0.3209 5.17466 0.719523L5.18877 5.28048H0.719523C0.3209 5.28048 0 5.60138 0 6C0 6.3985 0.3209 6.71939 0.719523 6.71939H5.18172V11.2805C5.18172 11.6788 5.50262 12 5.90124 12C6.29987 12 6.62076 11.6788 6.62076 11.2805V6.71952H11.2805C11.6791 6.71952 12 6.39837 12 6C12 5.60125 11.6755 5.28035 11.2805 5.28035Z" fill="#7C86AF"/>
</svg>
