<svg width="32" height="32" viewBox="0 0 32 32" fill="none" xmlns="http://www.w3.org/2000/svg">
<path d="M30.5947 18.5434L29.2635 17.4476C28.3516 16.6969 28.3532 15.3016 29.2636 14.5524L30.5947 13.4566C31.5421 12.6766 31.7844 11.3393 31.1709 10.2764L28.5422 5.72356C27.9286 4.66081 26.649 4.20206 25.5001 4.63244L23.8854 5.23737C22.7794 5.65162 21.5719 4.95294 21.3781 3.78981L21.0947 2.08894C20.8929 0.878563 19.8559 0 18.6287 0H13.3716C12.1444 0 11.1072 0.878562 10.9056 2.089L10.6221 3.78981C10.4279 4.955 9.21875 5.65094 8.11481 5.23744L6.50012 4.63244C5.35119 4.20206 4.07169 4.66088 3.458 5.72356L0.829436 10.2764C0.215874 11.3391 0.458124 12.6765 1.40556 13.4565L2.73675 14.5524C3.64875 15.3031 3.64694 16.6982 2.73675 17.4475L1.4055 18.5434C0.458124 19.3234 0.215811 20.6608 0.829374 21.7235L3.458 26.2764C4.07162 27.3391 5.35087 27.7979 6.50012 27.3675L8.11475 26.7626C9.22094 26.3481 10.4282 27.0473 10.622 28.2101L10.9055 29.9109C11.1072 31.1214 12.1444 32 13.3715 32H18.6287C19.8558 32 20.8929 31.1214 21.0946 29.911L21.3781 28.2103C21.5722 27.0454 22.7812 26.3489 23.8854 26.7627L25.5001 27.3676C26.6493 27.798 27.9286 27.3392 28.5422 26.2764L31.1709 21.7235C31.7844 20.6608 31.5421 19.3234 30.5947 18.5434ZM26.3772 25.0264L24.7625 24.4215C22.1813 23.4546 19.3644 25.0859 18.9122 27.7992L18.6287 29.5H13.3716L13.0881 27.7992C12.635 25.0806 9.81394 23.4564 7.23775 24.4215L5.62306 25.0264L2.9945 20.4736L4.32569 19.3777C6.45375 17.6258 6.44931 14.3706 4.32569 12.6223L2.9945 11.5264L5.62312 6.97356L7.23775 7.5785C9.819 8.54537 12.6359 6.91412 13.0881 4.20081L13.3715 2.5H18.6287L18.9121 4.20081C19.3652 6.91969 22.1864 8.54338 24.7624 7.5785L26.3771 6.97356L29.0063 11.5258C29.0063 11.5258 29.0061 11.526 29.0056 11.5264L27.6745 12.6222C25.5465 14.374 25.5507 17.6293 27.6744 19.3776L29.0057 20.4735L26.3772 25.0264ZM16.0001 9.83331C12.5998 9.83331 9.83344 12.5997 9.83344 16C9.83344 19.4003 12.5998 22.1667 16.0001 22.1667C19.4004 22.1667 22.1668 19.4003 22.1668 16C22.1668 12.5997 19.4004 9.83331 16.0001 9.83331ZM16.0001 19.6667C13.9783 19.6667 12.3334 18.0218 12.3334 16C12.3334 13.9782 13.9783 12.3333 16.0001 12.3333C18.0219 12.3333 19.6668 13.9782 19.6668 16C19.6668 18.0218 18.0219 19.6667 16.0001 19.6667Z" fill="#7C86AF"/>
</svg>
