<svg width="106" height="100" viewBox="0 0 106 100" fill="none" xmlns="http://www.w3.org/2000/svg">
<path d="M105.118 50.0001L93.2188 36.7888L95.0819 19.1021L77.6819 15.4187L68.8063 0L52.5617 7.26021L50.3691 50.0001L52.5617 92.7398L68.8065 100L77.6819 84.5815L95.0819 80.8979L93.2188 63.2112L105.118 50.0001Z" fill="#0ED678"/>
<path d="M36.3115 0L27.4361 15.4187L10.0362 19.1023L11.8993 36.7888L0 50.0001L11.8993 63.2112L10.0362 80.8979L27.4361 84.5815L36.3117 100L52.5565 92.7398V7.26021L36.3115 0Z" fill="#04EB84"/>
<path d="M74.5955 38.4969L69.9951 34.3906L52.5627 53.9211L50.3701 58.7747L52.5627 63.1815L74.5955 38.4969Z" fill="#F7F0EB"/>
<path d="M34.2419 45.3594L29.8818 49.7197L48.2138 68.0518L52.5622 63.1801V53.9197L47.9593 59.0765L34.2419 45.3594Z" fill="#FFFBF5"/>
</svg>
