<svg width="34" height="29" viewBox="0 0 34 29" fill="none" xmlns="http://www.w3.org/2000/svg">
<path d="M1.34942 13.7127L8.91784 16.5375L11.8473 25.9585C12.0347 26.5619 12.7726 26.7849 13.2623 26.3845L17.4811 22.9453C17.9233 22.585 18.5532 22.567 19.0153 22.9025L26.6245 28.4269C27.1483 28.8077 27.8906 28.5206 28.0219 27.8876L33.5961 1.07511C33.7395 0.383585 33.06 -0.193304 32.4015 0.0613636L1.34055 12.0438C0.574028 12.3394 0.580707 13.4246 1.34942 13.7127ZM11.3752 15.0338L26.1667 5.92364C26.4325 5.7604 26.706 6.11984 26.4777 6.33159L14.2705 17.6789C13.8414 18.0783 13.5646 18.6128 13.4862 19.193L13.0704 22.2746C13.0153 22.686 12.4373 22.7269 12.3238 22.3287L10.7245 16.7092C10.5413 16.0683 10.8082 15.3837 11.3752 15.0338Z" fill="white"/>
</svg>
