<svg width="15" height="16" viewBox="0 0 15 16" fill="none" xmlns="http://www.w3.org/2000/svg">
<path d="M9.01462 14.5861C8.89093 14.617 8.76483 14.6443 8.63965 14.6674C8.31244 14.7282 8.09611 15.0429 8.15664 15.3704C8.18653 15.5316 8.27804 15.6658 8.40227 15.7534C8.53031 15.8435 8.69328 15.8842 8.85933 15.8533C9.0084 15.8256 9.15863 15.7931 9.30605 15.7563C9.62917 15.6759 9.82602 15.3485 9.74541 15.0256C9.66499 14.7023 9.33794 14.5057 9.01462 14.5861Z" fill="#7C86AF"/>
<path d="M13.4748 6.50345C13.517 6.63075 13.5977 6.73468 13.6995 6.80648C13.8506 6.91286 14.0482 6.94865 14.2368 6.88629C14.553 6.7813 14.7243 6.44035 14.6197 6.12433C14.572 5.98026 14.5192 5.83574 14.4628 5.69503C14.3391 5.3858 13.9884 5.23526 13.679 5.35894C13.3699 5.48257 13.2193 5.83342 13.3431 6.14274C13.3905 6.26101 13.4348 6.38241 13.4748 6.50345Z" fill="#7C86AF"/>
<path d="M10.9743 13.7253C10.8679 13.7955 10.7581 13.8635 10.6475 13.9271C10.3589 14.0936 10.2601 14.4624 10.4265 14.7508C10.4717 14.8293 10.5318 14.8934 10.6011 14.9424C10.7871 15.0733 11.0398 15.0929 11.2501 14.9718C11.3816 14.8959 11.5123 14.8152 11.639 14.7315C11.9168 14.548 11.9932 14.1738 11.8096 13.896C11.6261 13.618 11.2521 13.5416 10.9743 13.7253Z" fill="#7C86AF"/>
<path d="M14.9946 8.18775C14.9815 7.85492 14.7011 7.59587 14.3682 7.60887C14.0357 7.62199 13.7765 7.90242 13.7895 8.23511C13.7945 8.36232 13.7958 8.49142 13.7929 8.6185C13.7882 8.82722 13.8903 9.01326 14.0489 9.12509C14.1434 9.19164 14.2581 9.23191 14.3825 9.23475C14.7153 9.24213 14.9911 8.97815 14.9985 8.64516C15.0019 8.49333 15.0006 8.33949 14.9946 8.18775Z" fill="#7C86AF"/>
<path d="M13.3763 12.1389C13.1094 11.9387 12.7318 11.993 12.5319 12.2594C12.4554 12.3615 12.3748 12.4622 12.2922 12.5592C12.0765 12.8127 12.107 13.1934 12.3604 13.4092C12.3749 13.4215 12.3895 13.4327 12.4046 13.4433C12.6566 13.6209 13.0067 13.5801 13.2105 13.3411C13.309 13.2253 13.4051 13.1049 13.4966 12.9831C13.6965 12.7167 13.6424 12.3388 13.3763 12.1389Z" fill="#7C86AF"/>
<path d="M14.2621 9.95893C13.9444 9.85929 13.606 10.0362 13.5064 10.354C13.4683 10.4754 13.4261 10.5973 13.3805 10.7168C13.2803 10.9798 13.3763 11.2691 13.5962 11.4242C13.6365 11.4525 13.6809 11.4766 13.7292 11.4948C14.0403 11.6135 14.3887 11.4574 14.5073 11.1462C14.5615 11.0042 14.6117 10.859 14.6571 10.7147C14.7566 10.3969 14.5799 10.0586 14.2621 9.95893Z" fill="#7C86AF"/>
<path d="M6.38431 14.6729C5.84519 14.5761 5.32803 14.4112 4.83762 14.1813C4.83182 14.1783 4.82663 14.1748 4.82053 14.1721C4.70497 14.1177 4.5896 14.0594 4.47778 13.9985C4.47739 13.9981 4.47668 13.9978 4.47607 13.9975C4.2709 13.8846 4.07066 13.7595 3.87613 13.6226C1.03954 11.6244 0.357512 7.69102 2.35582 4.85446C2.79034 4.23788 3.31618 3.72349 3.90241 3.3158C3.90963 3.31077 3.91686 3.30577 3.92401 3.30071C5.98981 1.87732 8.79483 1.78139 10.9884 3.24405L10.5173 3.92476C10.3863 4.11423 10.4669 4.2523 10.6961 4.23166L12.7426 4.04845C12.9722 4.02781 13.1095 3.82922 13.0477 3.60751L12.4982 1.62752C12.4367 1.40555 12.2791 1.37898 12.148 1.56842L11.6758 2.25074C10.0661 1.17014 8.1353 0.758087 6.21893 1.0904C6.02592 1.1238 5.83561 1.16469 5.64792 1.21228C5.64647 1.21254 5.64531 1.2127 5.64415 1.21296C5.63689 1.21473 5.62954 1.21708 5.62248 1.21905C3.96996 1.64342 2.52816 2.60723 1.49934 3.98238C1.49067 3.99267 1.48174 4.00273 1.47355 4.01392C1.43934 4.05999 1.40539 4.10713 1.37214 4.15427C1.31778 4.23153 1.26419 4.31072 1.21292 4.38992C1.2065 4.39946 1.2016 4.40917 1.19599 4.41881C0.347 5.7344 -0.0625016 7.25536 0.00772639 8.8038C0.00788761 8.80889 0.00759741 8.81402 0.00772639 8.81924C0.0145299 8.9705 0.0265248 9.12385 0.0428081 9.27482C0.0436787 9.28456 0.0458391 9.29378 0.0474835 9.30352C0.064315 9.45533 0.085435 9.60748 0.111908 9.75961C0.380953 11.3118 1.11316 12.7085 2.21033 13.7953C2.21288 13.7978 2.21552 13.8006 2.2181 13.8033C2.219 13.8043 2.22 13.8048 2.22087 13.8057C2.51565 14.0965 2.83629 14.3654 3.18153 14.6085C4.08501 15.2452 5.09106 15.666 6.1715 15.8599C6.49933 15.9188 6.81249 15.7005 6.8713 15.3729C6.93008 15.045 6.71204 14.7316 6.38431 14.6729Z" fill="#7C86AF"/>
<path d="M7.12968 3.60645C6.86002 3.60645 6.6416 3.82506 6.6416 4.09433V8.95505L11.0871 11.2531C11.1587 11.2902 11.2353 11.3076 11.3107 11.3076C11.4872 11.3076 11.6578 11.2115 11.7445 11.0437C11.8681 10.8043 11.7746 10.5101 11.5351 10.3864L7.61722 8.36092V4.09433C7.61718 3.82506 7.39902 3.60645 7.12968 3.60645Z" fill="#7C86AF"/>
</svg>
