<svg width="33" height="29" viewBox="0 0 33 29" fill="none" xmlns="http://www.w3.org/2000/svg">
<path d="M32.7011 4.89093C32.5069 4.57505 32.1516 4.39599 31.7817 4.42807L30.1438 4.57075L31.7094 1.41487C31.8958 1.039 31.8222 0.586144 31.5263 0.288667C31.2303 -0.00881022 30.7779 -0.084639 30.4011 0.0998648L26.2577 2.12909C23.6978 0.777641 20.4995 1.17879 18.2988 3.1835C16.4621 4.85661 15.4967 7.42959 15.6767 9.99546C10.8762 9.51431 6.81277 6.76657 4.40999 2.32681C4.25057 2.03228 3.95168 1.83963 3.61764 1.81596C3.28295 1.79267 2.96052 1.94099 2.76126 2.21024C1.27099 4.22349 1.16642 6.98386 2.33471 9.25481C2.01266 9.17346 1.66995 9.06338 1.28991 8.93642C0.964335 8.82755 0.605399 8.89729 0.344104 9.12002C0.0828091 9.34276 -0.0428023 9.68604 0.0130749 10.0248C0.475361 12.8275 2.10972 14.9815 4.69149 16.2565C4.35533 16.3736 4.0123 16.4687 3.66351 16.5414C3.31695 16.6136 3.03635 16.8671 2.92953 17.2046C2.82272 17.5421 2.90624 17.911 3.1481 18.1694C5.00732 20.1568 7.69302 21.1349 9.60067 21.6041C7.43166 23.3027 5.09027 23.587 1.68798 23.4701C1.29414 23.4582 0.931296 23.68 0.765717 24.0371C0.600203 24.3941 0.66442 24.8156 0.928922 25.1072C2.34722 26.6705 7.51448 28.4333 12.9464 28.5655C13.1613 28.5707 13.3804 28.5735 13.6042 28.5735C17.4182 28.5734 22.4587 27.7559 26.0767 24.1378C28.8152 21.3994 30.5281 18.2469 31.1677 14.7681C31.6842 11.9584 31.3577 9.70843 31.2009 8.62707C31.1893 8.54759 31.177 8.46323 31.167 8.38945L32.6991 5.9202C32.8945 5.60521 32.8953 5.20682 32.7011 4.89093Z" fill="white"/>
</svg>
