<svg width="13" height="13" viewBox="0 0 13 13" fill="none" xmlns="http://www.w3.org/2000/svg">
<path d="M12.9282 1.67001L10.8928 0.0417386C10.8357 -0.00398996 10.7574 -0.0129275 10.6914 0.0188108C10.6254 0.0505237 10.5835 0.11725 10.5835 0.190451V0.818209C10.4334 0.824557 10.2836 0.838395 10.1363 0.859571C10.0322 0.874526 9.95989 0.971035 9.97484 1.07514C9.9898 1.17924 10.0863 1.2514 10.1904 1.23655C10.3823 1.20897 10.5786 1.19501 10.7739 1.19501C10.8791 1.19501 10.9643 1.10974 10.9643 1.00458V0.586647L12.5044 1.8187L10.9643 3.05076V2.63283C10.9643 2.52766 10.8791 2.4424 10.7739 2.4424C9.2099 2.4424 7.9375 3.7148 7.9375 5.27878V12.8096C7.9375 12.9147 8.02276 13 8.12793 13C8.2331 13 8.31836 12.9147 8.31836 12.8096V5.27881C8.31836 3.98886 9.31809 2.92807 10.5835 2.83059V3.447C10.5835 3.5202 10.6254 3.58693 10.6914 3.61864C10.7574 3.65036 10.8357 3.64147 10.8928 3.59572L12.9282 1.96744C12.9733 1.93131 12.9997 1.87659 12.9997 1.81875C12.9997 1.76091 12.9734 1.70614 12.9282 1.67001Z" fill="#7C86AF"/>
<path d="M9.52898 1.18508C9.49384 1.08596 9.38504 1.03411 9.28586 1.06925C7.9249 1.5518 6.90541 2.65418 6.50066 3.9896C5.96367 2.21251 4.34642 0.899615 2.4162 0.818162V0.190429C2.4162 0.117228 2.37423 0.0505017 2.30826 0.0187888C2.2423 -0.0128987 2.16399 -0.00401195 2.10681 0.0417166L0.0714746 1.67002C0.0263047 1.70615 0 1.76086 0 1.8187C0 1.87654 0.0263047 1.93126 0.0714746 1.96739L2.10681 3.59567C2.16397 3.6414 2.24227 3.65033 2.30826 3.6186C2.37423 3.58688 2.4162 3.52016 2.4162 3.44695V2.83055C3.68156 2.92802 4.6813 3.98882 4.6813 5.27876V12.8096C4.6813 12.9147 4.76656 13 4.87173 13C4.97689 13 5.06215 12.9147 5.06215 12.8096V5.27881C5.06215 3.71483 3.78975 2.44243 2.22577 2.44243C2.1206 2.44243 2.03534 2.52769 2.03534 2.63286V3.05079L0.49527 1.8187L2.03534 0.58665V1.00458C2.03534 1.10975 2.1206 1.19501 2.22577 1.19501C4.47759 1.19501 6.30957 3.02699 6.30957 5.27881C6.30957 5.38398 6.39483 5.46924 6.5 5.46924C6.60517 5.46924 6.69043 5.38398 6.69043 5.27881C6.69043 3.55306 7.78459 2.00563 9.41312 1.4282C9.51224 1.39306 9.56412 1.28421 9.52898 1.18508Z" fill="#7C86AF"/>
<path d="M6.5 6.30957C6.39483 6.30957 6.30957 6.39483 6.30957 6.5V7.11059C6.30957 7.21576 6.39483 7.30102 6.5 7.30102C6.60517 7.30102 6.69043 7.21576 6.69043 7.11059V6.5C6.69043 6.39483 6.60517 6.30957 6.5 6.30957Z" fill="#7C86AF"/>
<path d="M6.5 8.14136C6.39483 8.14136 6.30957 8.22662 6.30957 8.33179V8.94238C6.30957 9.04755 6.39483 9.13281 6.5 9.13281C6.60517 9.13281 6.69043 9.04755 6.69043 8.94238V8.33179C6.69043 8.22662 6.60517 8.14136 6.5 8.14136Z" fill="#7C86AF"/>
<path d="M6.5 9.97314C6.39483 9.97314 6.30957 10.0584 6.30957 10.1636V10.7742C6.30957 10.8793 6.39483 10.9646 6.5 10.9646C6.60517 10.9646 6.69043 10.8793 6.69043 10.7742V10.1636C6.69043 10.0584 6.60517 9.97314 6.5 9.97314Z" fill="#7C86AF"/>
<path d="M6.5 11.8052C6.39483 11.8052 6.30957 11.8904 6.30957 11.9956V12.6062C6.30957 12.7114 6.39483 12.7966 6.5 12.7966C6.60517 12.7966 6.69043 12.7114 6.69043 12.6062V11.9956C6.69043 11.8904 6.60517 11.8052 6.5 11.8052Z" fill="#7C86AF"/>
</svg>
