<svg width="29" height="29" viewBox="0 0 29 29" fill="none" xmlns="http://www.w3.org/2000/svg">
<path d="M24.7703 4.16058C22.0789 1.47918 18.4984 0.00153011 14.6878 0C10.8857 0 7.29957 1.47634 4.5904 4.15709C1.87643 6.84242 0.38042 10.4111 0.376923 14.1926V14.197V14.1996C0.37736 16.4884 0.978692 18.7974 2.12015 20.905L0.41605 28.6506L8.25086 26.8685C10.2352 27.8685 12.4493 28.3957 14.6823 28.3966H14.688C18.4895 28.3966 22.0756 26.9201 24.7852 24.2391C27.5016 21.5516 28.9982 17.9875 29 14.2036C29.0011 10.4463 27.4992 6.87958 24.7703 4.16058ZM14.6878 26.1605H14.6828C12.6777 26.1596 10.6909 25.6562 8.93766 24.7043L8.56715 24.5032L3.35735 25.6881L4.48898 20.5452L4.27083 20.169C3.1862 18.2986 2.61307 16.2338 2.61307 14.1972C2.61722 7.60529 8.03336 2.23614 14.6874 2.23614C17.9019 2.23746 20.9223 3.48362 23.1921 5.74468C25.4963 8.04072 26.7647 11.0445 26.7636 14.2029C26.761 20.7964 21.3438 26.1605 14.6878 26.1605Z" fill="white"/>
<path d="M10.7937 7.93848H10.1663C9.94796 7.93848 9.59341 8.02023 9.29351 8.34658C8.99339 8.67315 8.14767 9.46246 8.14767 11.0678C8.14767 12.6731 9.32083 14.2242 9.48433 14.4421C9.64805 14.6598 11.7489 18.0593 15.0762 19.3671C17.8416 20.4539 18.4044 20.2377 19.0044 20.1833C19.6047 20.1291 20.9413 19.3942 21.2141 18.6324C21.4869 17.8706 21.4869 17.2175 21.4052 17.0811C21.3232 16.9451 21.1048 16.8636 20.7776 16.7005C20.4502 16.5372 18.8458 15.7346 18.5456 15.6255C18.2455 15.5169 18.0274 15.4625 17.809 15.7892C17.5906 16.1154 16.9478 16.8699 16.7567 17.0876C16.5659 17.3056 16.3748 17.3329 16.0474 17.1696C15.72 17.0059 14.6764 16.6553 13.4259 15.544C12.4525 14.679 11.7771 13.576 11.586 13.2495C11.3952 12.9231 11.5657 12.7465 11.7299 12.5837C11.877 12.4376 12.0757 12.2379 12.2394 12.0475C12.4029 11.8569 12.4495 11.7209 12.5588 11.5032C12.6678 11.2855 12.6132 11.0949 12.5314 10.9318C12.4495 10.7685 11.8212 9.15513 11.5301 8.50986H11.5303C11.2851 7.96646 11.0269 7.94809 10.7937 7.93848Z" fill="white"/>
</svg>
